<svg width="137" height="135" viewBox="0 0 137 135" fill="none" xmlns="http://www.w3.org/2000/svg">
<path d="M103.923 51.291C103.923 51.069 103.923 51.069 103.699 51.069C103.923 51.069 103.923 50.8469 103.923 50.6249C104.146 49.9588 103.476 49.2926 102.805 49.5147C100.123 50.4028 98.7825 53.0673 97.4415 55.5098C95.6536 58.6183 94.9831 61.7269 94.0892 65.0574C90.7368 60.8387 84.926 54.8436 81.3502 61.7269C80.9032 62.393 81.7972 63.5032 82.4676 62.8371C83.1381 62.393 84.0321 61.5048 84.926 61.0607C86.9374 60.1726 88.7254 62.1709 89.8428 63.5032C91.6308 65.2795 92.9717 67.4999 94.3126 69.4982C95.8771 71.9407 98.112 75.2713 101.464 74.6051C104.817 73.939 105.711 70.1644 105.711 67.2778C105.934 61.9489 105.04 56.3979 103.923 51.291ZM99.006 71.2746C97.4415 69.9423 96.5476 67.944 95.4301 66.3897C95.2066 66.1676 94.9831 65.9456 94.7596 65.5015C94.7596 65.5015 94.7596 65.5015 94.9831 65.2795C95.8771 62.615 97.4415 59.9505 98.7825 57.5081C99.8999 55.5098 101.017 53.5114 102.805 51.9571C102.805 56.842 103.699 61.5048 103.923 66.3897C103.923 68.8321 102.582 74.6051 99.006 71.2746Z" fill="black"/>
<path d="M100.794 96.8091C99.2295 94.8107 96.9946 93.2565 94.9832 91.7022C92.9718 90.1479 90.9604 88.5936 89.1724 87.0394C86.9375 85.263 85.3731 83.2647 83.5852 81.0443C82.4677 79.268 81.3502 77.4917 79.7858 76.3815H79.5623C80.0093 80.6002 83.5852 85.4851 86.714 88.3716C88.7254 90.1479 90.9604 91.9242 93.1953 93.4785C95.2067 95.0328 97.2181 97.0311 99.6765 98.1413C100.57 98.5854 101.241 97.4752 100.794 96.8091Z" fill="black"/>
<path d="M98.3359 99.9177C96.7715 100.806 95.8775 102.804 95.2071 104.358C94.3131 106.135 93.6426 108.133 92.9722 109.909C92.7487 110.576 93.6426 110.798 93.8661 110.132C94.5366 108.133 95.4306 106.357 96.548 104.581C97.442 103.248 98.7829 101.916 99.2299 100.362C99.4534 100.14 98.7829 99.6957 98.3359 99.9177Z" fill="black"/>
<path d="M99.2296 105.469C98.7826 106.357 98.5592 107.245 98.1122 108.355C97.8887 109.021 98.7826 109.243 99.0061 108.577C99.4531 107.689 99.9001 106.801 100.124 105.691C100.571 105.247 99.4531 104.803 99.2296 105.469Z" fill="black"/>
<path d="M119.567 112.13C119.567 112.13 119.567 111.908 119.567 112.13C119.344 111.686 118.897 111.464 118.673 111.464C117.333 111.464 116.662 113.018 115.992 114.128C115.545 115.016 115.098 115.905 114.651 116.793C114.427 115.683 113.98 114.794 113.98 113.906C113.98 113.684 113.533 113.684 113.533 113.906C113.533 114.794 113.533 115.905 113.533 116.793C113.533 117.681 113.533 118.791 113.533 119.679C113.533 120.567 114.651 120.789 115.098 120.123C115.768 119.013 116.439 117.903 117.109 116.793C117.556 116.127 117.78 115.683 118.227 115.016C118.45 114.794 118.673 114.572 118.673 114.128C119.12 113.906 119.12 113.684 118.897 113.684C119.567 113.462 119.791 112.796 119.567 112.13Z" fill="black"/>
<path d="M125.602 107.023C125.602 106.579 125.155 106.579 124.932 106.579C124.038 107.023 123.814 107.911 123.367 108.799C122.92 109.688 122.25 110.576 121.579 111.242C120.909 111.908 122.026 113.24 122.697 112.352C123.367 111.464 124.261 110.798 124.708 109.688C125.379 109.021 126.049 107.911 125.602 107.023Z" fill="black"/>
<path d="M125.379 97.2532C124.262 96.8091 123.144 96.3651 122.027 95.6989C121.133 95.2549 120.239 94.5888 119.121 94.3667C118.451 94.1447 118.004 95.0328 118.451 95.4769C120.015 97.2532 122.921 97.9193 125.156 98.3634C125.826 98.8075 126.049 97.4753 125.379 97.2532Z" fill="black"/>
<path d="M103.029 82.3766C102.806 81.7105 102.135 81.7105 101.688 82.1546C101.018 83.2648 100.794 84.597 100.347 85.7072C99.9003 87.2615 99.2298 88.5937 98.3358 89.926C97.8888 90.37 98.7828 90.8141 99.2298 90.37C101.018 88.1497 103.7 85.2631 103.029 82.3766Z" fill="black"/>
<path d="M106.159 84.1529L105.712 85.4851C105.488 86.3733 106.829 86.5953 107.053 85.9292L107.499 84.597C107.723 83.7088 106.382 83.2647 106.159 84.1529Z" fill="black"/>
<path d="M130.966 92.3684C127.166 88.5937 122.25 85.7072 119.121 81.4884C115.098 75.7154 113.757 68.1661 113.086 61.5049C112.416 55.0658 113.31 48.8486 113.98 42.4095C118.227 36.8585 120.015 29.0871 115.768 22.87C113.98 20.2056 111.299 18.2072 108.17 17.5411C105.711 17.097 101.912 17.097 101.018 19.7615C100.794 20.4276 101.688 20.8717 102.359 20.6496C105.041 19.5394 107.052 18.8733 109.958 20.4276C112.192 21.5378 113.98 23.7582 115.098 25.9786C117.333 30.6414 116.215 35.7483 113.98 40.4111C113.757 40.4111 113.31 40.4111 113.31 40.6332C113.086 41.5213 112.863 42.1875 112.639 43.0756C109.958 53.0674 111.075 64.3914 113.757 74.1611C115.098 78.824 117.109 83.2648 120.462 86.5954C124.484 90.37 128.731 93.4786 132.307 97.6973C133.871 99.4736 134.989 100.362 133.648 103.026C132.977 104.359 131.636 105.691 130.519 106.801C128.507 109.243 126.272 111.686 124.261 114.128C122.473 116.349 120.462 118.569 118.674 120.567C116.662 122.788 114.874 125.452 112.192 127.007C111.299 127.673 109.958 128.117 108.84 127.229C108.617 127.007 108.393 125.896 108.17 125.674C107.723 125.008 107.499 124.12 107.052 123.454C105.935 121.9 104.37 120.567 102.806 119.457C99.0065 116.793 94.3132 115.016 89.8434 113.24C82.6917 110.576 74.8695 108.799 67.4943 110.354C71.2936 106.135 73.752 99.6957 70.8466 94.8108C73.752 94.5888 76.6574 94.3667 79.3393 93.4786C79.7863 93.2565 80.0098 92.3684 79.3393 92.1463C75.7634 91.7023 71.9641 92.1463 68.3882 92.3684C67.4943 92.3684 66.6003 93.7006 67.4943 94.3667C73.0815 99.6957 67.4943 107.911 62.801 111.464L62.5775 111.686C61.46 112.13 60.3426 112.796 59.2251 113.462C58.5546 113.24 57.6607 113.462 57.4372 114.572C56.7667 121.011 55.6492 127.451 49.3915 130.559C43.1337 133.668 35.7585 132.335 29.5008 129.671C23.69 127.229 18.5497 123.454 16.9853 117.015C16.3148 113.684 16.3148 110.354 16.9853 107.245C17.6558 104.359 18.9967 101.472 19.4437 98.3634C19.4437 98.1414 19.2202 98.1414 18.9967 98.1414C14.9739 102.804 13.8564 110.576 14.9739 116.571C12.5155 113.462 10.2806 110.132 8.49264 106.801C7.15169 104.359 6.03424 101.916 6.03424 99.0296C6.03424 96.3651 6.9282 94.1447 7.37518 91.4802C7.37518 91.2582 7.37518 91.2582 7.37518 91.0361C7.37518 91.0361 7.37518 90.8141 7.37518 90.5921C5.58725 87.9276 3.79933 84.375 2.68187 81.0444C1.34092 77.0477 2.23489 73.495 4.02282 69.7204C7.15169 63.7253 11.6215 58.6184 16.9853 54.3996C18.1028 53.5115 16.5383 51.7352 15.1974 52.6233C12.5155 54.6217 10.0571 57.0641 7.82216 59.7286C4.02282 53.7335 2.90536 46.1842 4.02282 39.301C5.14027 32.8618 8.93962 27.3108 13.4094 22.648C17.8793 17.9852 23.0196 13.5444 28.8303 10.6579C31.9592 9.10359 35.3116 7.77135 38.8874 7.32727C42.4633 6.88319 46.0391 7.54931 49.615 7.77135C49.3915 8.21543 49.168 8.65951 48.9445 9.10359C48.4975 10.2138 50.2855 10.8799 50.7324 9.7697C56.7667 -0.222071 69.2822 0.666086 79.3393 1.55424C84.9266 3.33056 90.2904 4.44076 94.5367 7.54931C96.7716 9.10359 98.5595 11.1019 100.571 12.8783C102.135 14.4325 103.7 16.2088 105.935 16.875C106.158 16.875 106.382 16.6529 106.382 16.4309C105.711 13.7664 102.806 11.7681 101.018 9.7697C99.0065 7.77135 96.9951 5.77299 94.5367 4.21872C89.6199 1.3322 84.0326 0.444047 78.4453 -3.21567e-05C69.5057 -0.666151 55.6492 -1.11023 50.5089 7.54931C43.3572 4.88484 35.7585 5.32892 28.8303 8.88155C22.1256 12.2121 15.8678 17.5411 10.951 23.0921C6.25773 28.199 2.68187 34.194 2.0114 41.0773C1.34092 47.9605 2.0114 56.62 6.9282 61.949C4.69329 64.8355 2.90536 67.944 1.34092 71.0526C-2.17333e-05 74.3832 -0.447004 77.9358 0.670451 81.7105C1.78791 85.4852 4.24631 88.1496 6.48122 91.2582C2.90536 94.8108 3.35234 101.25 5.36376 105.469C6.70471 108.799 8.71613 111.464 10.5041 114.35C12.292 117.015 14.0799 119.679 16.3148 121.9C16.5383 122.122 16.9853 122.344 17.2088 122.344C19.8907 127.007 24.8075 130.337 29.9478 132.335C36.6525 135 44.4747 136.332 51.1794 132.78C57.4372 129.227 59.2251 122.788 59.8956 116.349C69.7292 108.799 82.6917 112.796 92.9722 117.015C97.6656 119.013 103.476 121.011 105.935 125.896C106.605 127.229 106.829 129.005 108.393 129.893C109.958 130.781 111.745 130.115 113.31 129.227C115.321 128.117 116.886 126.34 118.45 124.564C120.685 122.122 122.92 119.457 125.378 116.793C127.166 114.572 129.178 112.352 130.966 110.354C132.754 108.133 134.989 106.135 136.33 103.47C138.564 99.0296 133.648 95.0329 130.966 92.3684Z" fill="black"/>
<path d="M57.6604 85.7073C52.2967 84.153 46.0389 88.3717 43.5805 93.0346C40.8986 98.1415 42.2396 104.359 46.4859 108.133C46.9329 108.577 47.6034 108.133 47.3799 107.467C44.698 103.47 43.5805 98.1415 46.0389 93.7007C48.4973 89.0379 52.9671 88.1497 57.6604 87.4836C58.7779 87.7056 58.7779 86.1513 57.6604 85.7073Z" fill="black"/>
<path d="M44.0277 59.0624C39.3344 55.7318 33.3002 55.0657 28.1599 57.5081C22.3491 59.9506 18.3263 66.6117 15.8679 72.1627C13.186 78.1578 12.9625 85.041 15.1974 91.2581C16.0914 93.7006 17.2088 96.5871 19.6672 97.9193C22.5726 99.6956 26.5954 101.25 29.9478 101.694C30.1713 101.694 30.6183 101.472 30.1713 101.25C28.1599 99.4736 25.925 98.5854 23.69 97.4752C20.5612 95.921 18.9967 94.3667 17.6558 91.2581C15.6444 85.9292 15.6444 79.7121 17.6558 74.3831C19.6672 69.2762 23.0196 63.2812 27.9364 60.3946C32.6297 57.7302 38.6639 58.1742 42.9103 61.2828C44.0277 61.9489 45.1452 59.9506 44.0277 59.0624Z" fill="black"/>
<path d="M93.6423 25.0905C92.7483 22.6481 90.0664 21.0938 87.3845 20.2056C87.3845 18.4293 88.2785 16.875 89.6195 15.7649C90.5134 14.8767 92.0779 14.2106 92.7483 13.1004C92.9718 12.6563 92.7483 12.2122 92.0779 12.2122C90.2899 12.2122 88.502 14.2106 87.3845 15.3208C86.2671 16.653 85.8201 18.2073 86.0436 19.9836C84.9261 19.7616 83.5852 19.5395 82.6912 19.3175C77.104 18.6514 71.2932 19.3175 65.9294 21.3158C56.7663 24.8685 49.3911 31.7517 46.4857 41.0774C44.9213 40.4112 43.1333 40.6333 41.7924 41.7435C40.4514 42.6316 38.44 44.852 38.6635 46.6283C38.6635 47.0724 39.1105 47.2945 39.5575 47.0724C40.6749 46.4063 41.1219 44.852 42.0159 43.7418C43.1333 42.4096 44.6978 41.9655 46.2622 42.1875C46.2622 42.4096 46.2622 42.6316 46.0387 42.8537C46.0387 43.2977 46.4857 43.5198 46.7092 43.0757C46.7092 42.8537 46.9327 42.6316 46.9327 42.4096C47.3797 42.4096 47.6031 41.9655 47.3797 41.5214C51.4025 33.9721 57.4368 27.0889 65.7059 23.7583C69.9522 21.982 74.6456 21.3158 79.3389 21.3158C81.5738 21.3158 83.8087 21.7599 86.0436 22.426C88.502 23.0922 89.8429 24.8685 92.0779 25.9787C92.9718 26.6448 94.0893 25.9787 93.6423 25.0905Z" fill="black"/>
<path d="M47.1561 20.8715C46.2621 20.4275 45.3682 20.2054 44.2507 20.2054C44.6977 19.3173 44.9212 18.4291 45.1447 17.5409C45.8152 16.4307 46.9326 15.3205 47.1561 14.2103C47.1561 13.7663 46.9326 13.3222 46.4856 13.5442C45.1447 13.9883 44.2507 15.7646 43.8037 16.8748C43.3568 17.763 42.9098 19.0952 43.1333 20.2054C37.993 19.7613 32.6292 21.7597 28.8298 24.4242C24.5835 27.3107 19.2197 33.3057 19.2197 38.6347C19.2197 39.5228 20.3372 39.7449 20.7842 39.0788C22.1251 37.0804 22.5721 34.638 23.913 32.4176C25.4775 29.9752 27.7124 27.7548 30.1708 25.9784C35.3111 22.4258 40.8984 22.2038 46.7091 21.7597C47.3796 21.7597 47.6031 21.0936 47.1561 20.8715Z" fill="black"/>
<path d="M57.884 72.8289C57.2135 74.1612 56.5431 75.7154 55.6491 77.0477C54.9786 78.3799 54.0847 80.1562 52.9672 81.0444C52.5202 81.2664 52.5202 81.9325 52.7437 82.1546L52.9672 82.3766C53.1907 82.5987 53.8612 82.8207 54.3082 82.5987C55.6491 81.7105 56.3196 79.9342 56.9901 78.3799C57.884 76.6036 58.1075 74.8273 58.5545 73.051C58.5545 72.8289 58.1075 72.3848 57.884 72.8289Z" fill="black"/>
<path d="M77.7752 78.3799C75.0933 78.6019 73.0819 78.6019 70.847 77.7138C68.6121 76.8256 66.3772 75.7154 64.3657 74.3832C63.4718 73.7171 62.1308 75.2713 63.0248 75.9375C65.2597 77.9358 67.4946 79.7121 70.6235 79.9342H70.847C73.0819 80.3783 75.5403 80.3783 77.7752 79.2681C78.2222 78.824 77.9987 78.1579 77.7752 78.3799Z" fill="black"/>
<path d="M77.5514 55.9538C73.5285 53.0673 62.1305 53.2893 61.46 59.9505C61.46 60.6166 62.1305 60.6166 62.5775 60.3946C63.4714 59.7285 63.9184 58.6183 64.8124 57.9522C65.9298 56.842 67.4943 56.3979 69.0587 56.1759C71.2936 55.7318 75.3165 55.5097 77.3279 56.842C77.5514 56.842 77.9984 56.1759 77.5514 55.9538Z" fill="black"/>
<path d="M99.2299 41.0772C98.7829 43.9637 97.442 46.4062 96.101 49.0706C95.2071 50.8469 93.8661 53.0673 94.0896 55.0657C94.0896 55.5098 94.7601 55.7318 94.9836 55.2877C96.3245 53.0673 97.2185 50.1808 98.3359 47.7384C99.2299 45.518 99.9004 43.5196 99.9004 41.2992C99.9004 40.8552 99.2299 40.6331 99.2299 41.0772Z" fill="black"/>
<path d="M109.063 40.1891C107.275 39.9671 105.264 40.6332 103.476 41.0773C102.806 41.2993 103.253 42.1875 103.923 42.1875C105.711 41.9654 107.722 41.9654 109.287 41.0773C109.51 40.8552 109.51 40.4112 109.063 40.1891Z" fill="black"/>
<path d="M77.3281 101.694C77.1046 103.47 76.4341 105.469 76.4341 107.245C76.4341 107.911 77.1046 107.911 77.3281 107.467C77.9986 105.691 77.9986 103.47 77.9986 101.694C78.2221 101.25 77.5516 101.25 77.3281 101.694Z" fill="black"/>
<path d="M81.1273 103.914C80.9038 105.025 80.6803 106.135 80.4568 107.245C80.4568 107.689 80.9038 107.911 81.1273 107.467C81.7977 106.357 81.7977 105.025 82.0212 103.914C82.0212 103.47 81.1273 103.47 81.1273 103.914Z" fill="black"/>
<path d="M67.7181 13.7664C65.7067 13.7664 64.3658 15.5427 63.6953 17.3191C63.4718 17.7631 64.3658 18.2072 64.5893 17.7631C65.0362 16.6529 65.9302 15.3207 67.4946 15.0987C68.8356 14.8766 69.953 15.5427 70.4 16.875C70.6235 17.3191 71.294 17.3191 71.294 16.6529C71.0705 14.8766 69.5061 13.7664 67.7181 13.7664Z" fill="black"/>
<path d="M79.1162 8.88159C78.2222 8.88159 77.5517 9.32567 76.6578 9.54771C75.9873 9.76975 76.2108 10.8799 76.8813 10.6579C77.7752 10.4359 78.6692 10.2138 79.3396 9.76975C79.7866 9.54771 79.5631 8.88159 79.1162 8.88159Z" fill="black"/>
<path d="M61.684 12.4343C60.5665 11.3241 58.1081 11.5462 57.8846 13.3225C57.8846 13.7666 58.3316 13.9886 58.5551 13.5445C59.0021 12.8784 60.1196 12.4343 60.79 13.1005C61.4605 13.5445 62.131 12.8784 61.684 12.4343Z" fill="black"/>
<path d="M52.073 24.2024C50.7321 23.9804 49.6146 23.9804 48.7206 24.8685C47.8267 25.5346 46.9327 26.8669 47.3797 27.9771C47.6032 28.4211 48.2737 28.6432 48.4971 28.1991C48.9441 27.533 49.1676 26.6448 49.8381 25.9787C50.5086 25.3126 51.4025 25.0906 52.2965 25.0906C52.52 25.0906 52.52 24.2024 52.073 24.2024Z" fill="black"/>
<path d="M39.3349 37.9687C37.994 37.3026 36.4296 37.5247 35.3121 38.4128C34.4181 39.301 33.7477 41.2993 34.6416 42.6316C35.0886 43.0756 35.7591 43.0756 35.7591 42.4095C35.7591 41.5214 35.5356 40.6332 36.2061 39.745C36.8765 39.0789 37.994 38.6348 38.888 38.8569C39.5584 38.6348 39.7819 38.1908 39.3349 37.9687Z" fill="black"/>
<path d="M26.8188 49.0706C25.2543 49.0706 22.7959 50.6248 23.2429 52.6232C23.2429 53.0673 24.1369 53.0673 24.3604 52.8452C24.8073 52.1791 24.8073 51.513 25.2543 51.0689C25.7013 50.6248 26.3718 50.1808 27.0423 49.9587C27.2657 49.7367 27.2657 49.0706 26.8188 49.0706Z" fill="black"/>
<path d="M25.4777 19.7616C25.0307 18.6514 23.6898 18.8734 23.0193 19.5395C22.5723 19.9836 22.3488 20.6497 22.3488 21.0938C22.1253 21.7599 22.1253 22.426 22.3488 23.0922C22.3488 23.0922 22.5723 23.3142 22.5723 23.0922C23.2428 22.6481 23.4663 21.982 23.6898 21.3159C23.9133 20.6497 24.1368 19.9836 25.0307 20.4277C25.2542 20.4277 25.4777 20.2057 25.4777 19.7616Z" fill="black"/>
<path d="M34.1943 13.5442C33.7473 13.1002 32.8533 13.3222 32.4063 13.5442C31.7359 13.7663 31.0654 14.2103 30.6184 14.6544C30.3949 14.8765 30.8419 15.5426 31.0654 15.3205C31.5124 14.8765 32.1828 14.6544 32.6298 14.4324C33.0768 14.2103 33.7473 14.4324 34.1943 13.9883C34.4178 13.9883 34.4178 13.7663 34.1943 13.5442Z" fill="black"/>
<path d="M14.9734 32.4178C12.2915 31.7516 8.4922 34.1941 9.60965 37.3026C9.83314 37.7467 10.7271 37.7467 10.7271 37.0806C10.9506 35.0822 12.2915 32.8618 14.7499 33.528C15.4204 33.528 15.6439 32.6398 14.9734 32.4178Z" fill="black"/>
<path d="M10.727 47.2942C10.5035 46.8502 10.5035 46.6281 10.28 46.184C10.0565 45.74 9.16254 45.962 9.38603 46.6281C9.60952 47.0722 9.60952 47.2942 9.83301 47.7383C10.0565 48.1824 10.0565 48.4044 10.5035 48.6265C10.727 48.8485 11.174 48.6265 11.174 48.4044C10.9505 47.9604 10.9505 47.7383 10.727 47.2942Z" fill="black"/>
<path d="M16.7615 43.7418C16.091 43.7418 15.4205 43.9638 15.197 44.6299C14.75 45.074 14.5265 45.9622 15.197 46.4062C15.4205 46.6283 15.8675 46.6283 15.8675 46.1842C15.8675 45.7401 15.8675 44.852 16.538 44.852C17.4319 44.852 17.4319 43.7418 16.7615 43.7418Z" fill="black"/>
<path d="M10.9507 67.4999C10.5037 68.388 10.0568 69.0542 9.83327 69.9423C9.60978 70.3864 10.2803 70.6084 10.7272 70.1644C11.1742 69.4982 11.6212 68.6101 11.8447 67.944C12.0682 67.4999 11.3977 66.8338 10.9507 67.4999Z" fill="black"/>
<path d="M33.5237 29.9754C32.4062 29.3093 30.8418 29.9754 30.1713 30.8636C29.7243 31.3077 29.5008 31.9738 29.2773 32.4179C29.0538 33.084 29.2773 33.7501 29.5008 34.4162C29.7243 34.8603 30.3948 34.6383 30.3948 34.1942C30.1713 33.306 30.8418 32.1958 31.2887 31.7518C31.9592 31.3077 32.6297 31.0856 33.5237 30.6416C33.7471 30.6416 33.7471 30.1975 33.5237 29.9754Z" fill="black"/>
<path d="M43.804 29.5312C43.1336 29.7533 42.9101 30.1973 42.4631 30.6414C42.0161 31.0855 41.5691 31.7516 41.3456 32.1957C40.8987 32.8618 41.7926 33.5279 42.2396 33.0838C42.6866 32.6398 43.1336 32.1957 43.5805 31.5296C44.0275 31.0855 44.4745 30.6414 44.4745 29.9753C44.4745 29.7533 44.251 29.3092 43.804 29.5312Z" fill="black"/>
<path d="M30.1714 53.0673C28.16 53.0673 25.9251 54.1775 25.2546 56.1759C25.0311 56.62 25.9251 57.064 26.1486 56.62C27.266 55.2877 28.3835 54.3996 30.1714 54.1775C31.0654 54.1775 31.0654 53.0673 30.1714 53.0673Z" fill="black"/>
<path d="M10.5043 78.8239C9.38686 79.9341 8.26941 81.2664 8.26941 82.8206C8.26941 84.1529 10.0573 84.1529 10.2808 82.8206C10.2808 82.5986 9.83385 82.3766 9.61036 82.3766C9.83385 81.2664 10.5043 80.1562 11.1748 79.268C11.8453 79.046 11.1748 78.3799 10.5043 78.8239Z" fill="black"/>
<path d="M14.0802 97.6973C12.9627 98.8075 11.8453 100.362 12.2923 101.916C12.5158 102.36 13.1862 102.36 13.4097 101.916C13.8567 100.584 13.8567 99.4737 14.9742 98.3635C15.4211 97.9194 14.5272 97.0312 14.0802 97.6973Z" fill="black"/>
<path d="M26.3722 113.906C25.4783 115.239 25.2548 116.793 25.9252 118.125C26.1487 118.569 27.0427 118.347 26.8192 117.681C26.5957 116.571 26.3722 115.461 27.0427 114.35C27.7132 113.684 26.8192 113.24 26.3722 113.906Z" fill="black"/>
<path d="M33.9701 123.01C32.8526 123.01 31.9587 123.232 30.8412 122.344C30.3942 121.9 29.7237 122.788 30.1707 123.232C31.2882 124.12 33.0761 124.564 34.1936 123.676C34.6405 123.676 34.417 123.01 33.9701 123.01Z" fill="black"/>
<path d="M47.38 120.567C46.933 122.122 46.039 123.232 44.4746 123.454C43.8041 123.454 44.0276 124.786 44.6981 124.564C46.7095 124.342 48.4974 122.788 48.7209 120.567C48.4974 120.123 47.38 119.901 47.38 120.567Z" fill="black"/>
<path d="M38.8879 111.686C38.4409 112.13 37.9939 112.574 37.7704 113.018C37.7704 113.24 37.9939 113.684 38.2174 113.462C38.8879 113.24 39.3349 112.796 39.5584 112.352C40.2289 112.13 39.3349 111.242 38.8879 111.686Z" fill="black"/>
<path d="M37.7698 117.903C37.0993 117.903 37.0993 119.013 37.7698 119.013C38.4402 119.235 38.4402 117.903 37.7698 117.903Z" fill="black"/>
<path d="M30.1717 109.021C29.5013 109.021 29.5013 110.131 30.1717 110.131C30.8422 110.131 30.8422 109.021 30.1717 109.021Z" fill="black"/>
<path d="M20.5608 104.803C20.5608 104.136 19.4434 104.136 19.4434 104.803C19.4434 105.913 19.2199 107.245 19.4434 108.355C19.4434 108.799 20.1139 108.799 20.3373 108.355C20.7843 107.023 20.5608 105.913 20.5608 104.803Z" fill="black"/>
<path d="M32.8527 64.3915C30.1708 63.9474 27.0419 65.7237 27.0419 68.6102C27.0419 69.2764 27.9359 69.2764 27.9359 68.8323C28.6064 66.8339 30.3943 65.0576 32.6292 65.2797C33.2997 65.2797 33.5232 64.3915 32.8527 64.3915Z" fill="black"/>
<path d="M26.8189 74.1612C25.7015 75.0493 24.3605 77.0477 24.8075 78.6019C25.031 79.046 25.478 79.046 25.7015 78.6019C25.925 77.9358 25.925 77.2697 26.1485 76.6036C26.372 75.9375 26.8189 75.2714 27.4894 74.8273C27.9364 74.3832 27.2659 73.7171 26.8189 74.1612Z" fill="black"/>
<path d="M31.7354 82.5988C31.0649 83.2649 30.171 83.7089 29.5005 84.5971C29.0535 85.0412 29.724 85.7073 30.171 85.4853C31.0649 84.8191 31.7354 84.153 32.6294 83.4869C33.0764 83.0428 32.1824 82.1547 31.7354 82.5988Z" fill="black"/>
<path d="M22.1258 86.1513C20.5613 87.2615 19.6674 89.4819 21.0083 91.0361C21.4553 91.4802 22.1258 91.0361 21.9023 90.5921C21.4553 89.4819 21.4553 87.9276 22.5728 87.2615C23.2432 86.5953 22.7962 85.7072 22.1258 86.1513Z" fill="black"/>
<path d="M37.0998 93.4787C36.8763 92.5905 36.6528 91.9244 36.8763 91.0362C37.0998 90.3701 35.9823 89.926 35.7588 90.8142C35.5354 91.9244 35.5354 93.0346 36.2058 93.9228C36.4293 94.1448 37.0998 93.9227 37.0998 93.4787Z" fill="black"/>
<path d="M43.3575 77.2696C41.7931 75.9373 39.3347 77.7137 40.2287 79.712C40.4522 80.1561 41.1226 79.9341 41.1226 79.49C41.1226 78.6018 42.0166 77.4916 42.9106 77.9357C43.1341 77.9357 43.581 77.4916 43.3575 77.2696Z" fill="black"/>
<path d="M41.3459 69.2761C40.4519 69.0541 39.558 69.4982 39.111 70.1643C38.4405 70.8304 38.4405 71.7186 38.664 72.6067C38.8875 73.0508 39.558 72.8288 39.558 72.3847C39.558 71.9406 39.7815 71.2745 40.2284 70.8304C40.6754 70.3863 41.1224 70.1643 41.5694 69.9423C41.7929 69.9423 41.5694 69.2761 41.3459 69.2761Z" fill="black"/>
<path d="M57.2135 42.1875C54.5316 42.1875 52.7437 45.2961 52.9672 47.7385C52.9672 48.4046 53.8611 48.1826 53.8611 47.5164C54.0846 45.2961 55.4256 43.9638 57.437 43.0757C58.1075 42.8536 57.884 42.1875 57.2135 42.1875Z" fill="black"/>
<path d="M71.7408 32.1958C70.3999 31.5297 68.6119 32.1958 67.718 33.528C67.4945 33.9721 68.165 34.6382 68.6119 33.9721C69.2824 32.8619 70.3999 32.6398 71.5173 32.8619C71.9643 33.0839 72.1878 32.4178 71.7408 32.1958Z" fill="black"/>
<path d="M69.059 39.745C67.4945 39.967 66.3771 41.2993 65.7066 42.4095C65.2596 43.0756 66.1536 43.5197 66.6006 42.8535C67.271 42.1874 67.9415 41.0772 68.8355 40.8552C69.7294 40.6332 70.1764 41.2993 70.8469 41.7434C71.0704 41.9654 71.5174 41.7434 71.5174 41.5213C71.9643 40.4111 69.9529 39.745 69.059 39.745Z" fill="black"/>
<path d="M78.8925 35.3043C77.5515 35.5264 76.4341 36.4145 75.5401 37.3027C75.0931 37.7468 75.7636 38.6349 76.4341 38.1909C77.1046 37.5247 77.9985 36.8586 78.8925 36.6366C79.7864 36.4145 80.2334 37.0807 80.9039 37.3027C81.1274 37.3027 81.3509 37.0807 81.3509 36.8586C81.3509 35.5264 79.7864 35.0823 78.8925 35.3043Z" fill="black"/>
<path d="M82.9156 26.8667C80.9041 24.8684 77.1048 25.9785 75.5404 27.9769C75.0934 28.421 75.7638 29.3091 76.2108 28.643C77.9988 26.6447 80.0102 26.8667 82.4686 27.5328C82.9156 27.7549 83.3625 27.0887 82.9156 26.8667Z" fill="black"/>
<path d="M91.6308 33.9719C90.7368 33.5278 89.6194 33.9719 88.5019 34.416C87.8314 34.638 88.5019 35.7482 88.9489 35.3041C89.8429 34.8601 90.5133 34.8601 91.4073 34.8601C92.0778 34.8601 92.0778 34.1939 91.6308 33.9719Z" fill="black"/>
<path d="M108.393 27.3109C107.946 26.4228 106.829 26.2007 105.935 26.2007C104.818 26.4228 103.924 26.8669 103.477 27.755C103.03 28.4211 104.147 29.0873 104.594 28.4211C105.041 27.755 105.712 27.533 106.382 27.3109C107.052 27.3109 107.499 27.533 108.17 27.755C108.17 27.9771 108.393 27.755 108.393 27.3109Z" fill="black"/>
<path d="M109.958 32.1958C109.288 31.3076 107.276 31.7517 106.382 32.1958C105.935 32.4178 106.382 33.306 106.829 33.0839C107.276 32.8619 107.723 32.6398 108.394 32.8619C108.841 32.8619 109.288 33.0839 109.735 32.8619C109.958 32.8619 109.958 32.4178 109.958 32.1958Z" fill="black"/>
<path d="M87.8325 42.4096C86.268 42.8537 84.7036 43.2978 83.3626 44.1859C82.9157 44.408 83.3626 44.8521 83.5861 44.8521C85.1506 44.63 86.715 43.9639 88.056 43.5198C88.9499 43.2978 88.7264 42.1876 87.8325 42.4096Z" fill="black"/>
<path d="M86.0443 49.9589C84.0329 49.5148 81.351 50.625 80.904 53.0674C80.904 53.5115 81.351 53.7335 81.5745 53.2894C82.4684 51.9572 83.8094 50.847 85.5973 51.0691C86.4913 51.0691 86.7148 50.1809 86.0443 49.9589Z" fill="black"/>
<path d="M67.2702 65.0575C67.2702 65.7236 67.0467 66.3897 67.0467 67.0559C67.0467 67.722 66.8232 68.166 67.0467 68.6101C67.2702 68.8322 67.4937 68.8322 67.7172 68.6101C68.1642 68.166 68.1642 67.4999 68.1642 67.0559C68.1642 66.3897 68.3877 65.7236 68.3877 65.0575C68.3877 64.6134 67.2702 64.3914 67.2702 65.0575Z" fill="black"/>
<path d="M73.0819 68.388C72.188 69.4982 71.741 70.8305 72.4114 71.9407C72.6349 72.3847 73.0819 72.1627 73.3054 71.7186C73.3054 70.8305 73.5289 69.7203 74.1994 69.0541C74.4229 68.6101 73.5289 67.9439 73.0819 68.388Z" fill="black"/>
<path d="M63.6951 82.5987C62.8011 83.2649 62.3541 84.8191 63.0246 85.9293C63.2481 86.3734 63.9186 86.1514 63.9186 85.7073C63.9186 84.8191 63.9186 84.153 64.3655 83.4869C64.8125 82.8208 64.1421 82.1547 63.6951 82.5987Z" fill="black"/>
<path d="M54.3082 98.1413C54.0847 98.5854 54.0847 99.2515 53.8612 99.6956C53.6377 100.14 54.5317 100.362 54.7552 99.9176C54.9786 99.4735 54.9786 99.0294 55.2021 98.3633C55.2021 97.9192 54.3082 97.6972 54.3082 98.1413Z" fill="black"/>
<path d="M61.4595 105.469C60.789 105.913 60.1186 104.803 60.1186 104.359C59.8951 103.248 60.3421 102.36 60.3421 101.25C60.3421 100.584 59.2246 100.584 59.4481 101.25C59.4481 102.804 58.3306 104.581 59.6716 106.135C60.5656 107.023 61.9065 107.245 62.577 106.135C62.8005 105.691 62.13 105.025 61.4595 105.469Z" fill="black"/>
<path d="M57.4373 63.0591C54.7554 63.5032 53.1909 67.0559 53.4144 69.4983C53.4144 70.1644 54.3084 70.1644 54.3084 69.4983C54.3084 68.3881 54.7554 67.0559 55.4258 66.1677C56.0963 65.2795 56.9903 64.8355 57.8843 63.9473C58.7782 63.7253 58.1077 63.0591 57.4373 63.0591Z" fill="black"/>
<path d="M55.6497 52.8455C53.1913 53.0675 52.2973 56.3981 52.7443 58.3964C52.7443 59.0626 53.8617 58.8405 53.8617 58.1744C53.6382 57.0642 53.8617 56.1761 54.5322 55.2879C54.9792 54.6218 55.8732 53.9557 56.3201 53.2895C56.3201 53.2895 56.0966 52.8455 55.6497 52.8455Z" fill="black"/>
<path d="M50.9554 48.1824C50.0614 47.9604 49.391 48.4044 48.497 48.6265C47.603 49.0706 46.9326 49.2926 46.0386 49.7367C45.3681 50.1808 46.0386 51.0689 46.4856 50.6248C47.3795 50.1808 48.05 49.9587 48.944 49.5146C49.6145 49.2926 50.5084 49.2926 50.9554 48.6265C51.4024 48.6265 51.4024 48.1824 50.9554 48.1824Z" fill="black"/>
</svg>
