<svg width="155" height="152" viewBox="0 0 155 152" fill="none" xmlns="http://www.w3.org/2000/svg">
<path d="M69.9106 0.644154C63.9244 6.22608 58.3658 12.2374 52.5934 18.2487C46.821 24.0453 41.2623 29.8419 35.4899 35.6385C29.9313 41.4351 24.3727 47.017 19.0278 52.8137C13.8968 58.3956 8.1244 63.7628 3.63475 69.7741C1.9244 71.921 1.28302 76.8588 5.55888 76.0001C8.97957 75.356 12.4003 73.2091 15.6072 71.921C19.0278 70.6329 22.6623 69.3447 26.2968 68.2713C40.621 63.5481 55.1589 59.8984 69.6968 56.034C85.9451 51.7402 101.98 46.8024 117.373 40.147C118.655 39.5029 117.586 37.7854 116.304 38.2148C91.0761 48.9492 64.1382 54.5312 38.0554 62.26C31.6416 64.1922 25.2278 66.1244 19.0278 68.486C16.0347 69.5594 13.2554 70.6329 10.2623 71.7063C9.40716 71.921 6.41405 73.8532 5.55888 73.6385C2.77957 72.9944 6.84164 69.5594 7.48302 68.7007C17.1037 58.1809 26.9382 47.8758 36.7727 37.7854C42.3313 31.9888 47.8899 25.9775 53.6623 20.1809C59.4347 14.1696 65.6347 8.15828 71.1934 1.7176C71.621 1.07353 70.7658 8.65161e-05 69.9106 0.644154Z" fill="#333333"/>
<path d="M2.13766 73.6385C1.71007 80.5086 1.49628 87.164 1.28249 94.034C1.28249 94.6781 1.71007 95.1075 2.35145 95.1075C5.77214 94.8928 8.12387 98.3278 7.48249 101.763C6.84111 104.983 4.48938 106.271 2.35145 108.204C1.28249 109.277 1.28249 109.492 1.28249 111.424C1.06869 114 0.8549 116.576 0.641107 119.367C0.213521 127.955 -0.641652 138.475 2.77904 146.633C3.848 148.994 5.55835 152.429 8.55145 152.644C12.8273 152.859 17.7446 151.356 21.8066 150.497C31.4273 148.35 40.8342 144.915 49.8135 140.622C50.6687 140.192 50.4549 139.119 49.8135 138.689C45.3239 135.469 49.5997 130.316 53.8756 130.531C57.7239 130.746 60.0756 133.966 61.3583 137.401C61.5721 137.831 62.2135 138.475 62.6411 138.26C80.8135 131.819 98.9859 125.593 116.945 119.153C125.71 116.147 134.689 112.927 143.455 109.921C145.807 109.062 148.8 108.418 149.869 105.842C151.365 102.622 151.151 97.8984 151.365 94.4634C153.289 75.5707 154.145 56.6781 154.572 37.7854C154.572 35.2092 155.641 30.9154 153.717 28.5538C152.007 26.4069 148.158 26.4069 145.807 25.5482C137.896 23.1866 130.627 19.3222 123.145 15.8871C119.296 14.1696 115.234 12.4521 110.958 11.164C106.682 9.87583 102.193 9.44646 97.917 8.15832C93.2135 6.87019 89.1515 3.86454 84.448 2.5764C79.9584 1.28827 75.2549 1.07358 70.5515 0.858887C68.6273 0.858887 68.6273 3.64985 70.5515 3.64985C74.6135 3.86454 78.6756 4.07923 82.5239 5.15267C86.7997 6.22612 90.4342 8.5877 94.4963 10.3052C101.124 13.0962 108.393 13.3109 115.234 15.8871C122.076 18.4634 128.489 21.8984 135.117 24.9041C138.11 26.1922 140.889 27.2657 144.096 28.1244C145.807 28.5538 147.945 28.7685 149.655 29.4126C152.434 30.486 152.007 32.4182 152.007 34.9945C151.793 51.7402 150.938 68.2713 149.655 85.0171C149.441 89.0962 149.014 93.1753 148.8 97.2544C148.586 99.1866 149.014 102.622 148.158 104.339C146.876 107.13 143.669 107.774 140.889 108.633C132.765 111.424 124.427 114.429 116.303 117.22C98.3446 122.588 80.1721 128.814 61.9997 135.254C62.4273 135.469 62.8549 135.684 63.2825 136.113C61.1446 130.746 55.7997 125.593 49.5997 128.17C44.6825 130.317 44.0411 136.757 48.317 139.978C48.317 139.333 48.317 138.689 48.317 138.045C39.1239 142.554 29.717 145.989 19.6687 148.136C17.317 148.565 14.7515 149.209 12.3997 149.424C8.55145 149.853 6.84111 149.639 4.91697 145.989C2.56524 141.266 2.56525 135.898 2.35145 130.746C2.13766 125.593 2.35145 120.226 2.77904 115.074C2.99283 112.497 2.77904 110.35 4.91697 108.848C6.19973 107.989 7.26869 106.915 7.91007 105.627C11.117 100.689 8.97904 92.7459 2.13766 92.9606C2.56524 93.39 2.77904 93.6046 3.20662 94.034C3.42042 87.164 3.42042 80.5086 3.42042 73.6385C3.42042 72.7798 2.35145 72.7798 2.13766 73.6385Z" fill="#333333"/>
<path d="M80.386 76.2147C71.6204 74.2825 64.9929 88.452 72.048 94.2486C75.4687 97.0396 80.8135 97.0396 84.8756 95.3221C88.2963 93.8193 92.3584 90.3842 91.9308 86.3051C91.717 85.2317 90.0066 85.2317 89.7929 86.3051C88.2963 92.3164 80.1722 95.9661 74.8273 92.7458C71.1929 90.8136 71.6204 85.6611 73.3308 82.4407C74.8273 79.4351 77.6066 78.1469 80.8135 77.2882C81.0273 77.0735 81.0273 76.2147 80.386 76.2147Z" fill="#333333"/>
<path d="M104.331 54.7458C94.0689 56.678 92.5724 73.8532 103.69 75.5707C108.821 76.4294 114.593 73.2091 117.159 68.7006C119.297 64.6215 118.441 58.8249 113.524 57.3221C112.241 56.8927 111.6 58.8249 112.669 59.469C121.648 64.6215 109.462 76.2148 102.193 72.565C98.7724 70.8475 97.4896 66.7684 98.5586 63.1187C99.6276 59.6837 102.407 57.7515 104.759 55.3899C104.972 54.9605 104.759 54.5311 104.331 54.7458Z" fill="#333333"/>
<path d="M30.1446 116.576C26.0826 112.927 24.1584 106.701 28.8619 102.622C33.7791 98.3278 39.7653 101.763 41.2619 107.559C41.4757 108.848 43.6136 108.633 43.6136 107.345C43.3998 99.8306 34.2067 95.9662 28.4343 100.26C22.4481 104.554 22.8757 114.43 29.7171 117.435C29.9309 117.65 30.5722 117.006 30.1446 116.576Z" fill="#333333"/>
<path d="M80.8135 24.2599C78.6756 25.3334 77.8204 27.9096 78.6756 30.0565C79.7446 32.4181 82.3101 33.4916 84.6618 33.9209C90.648 34.7797 97.4894 31.9887 100.055 26.1921C100.91 24.2599 98.3446 23.1865 97.4894 25.1187C95.9928 28.5537 92.5721 30.7006 88.9377 31.3447C84.8756 31.9887 78.0342 30.7006 81.6687 25.3334C81.8825 24.4746 81.2411 24.0452 80.8135 24.2599Z" fill="#333333"/>
<path d="M134.261 35.8531C134.261 38.644 133.192 41.6497 131.055 43.5819C130.199 44.4407 124.641 46.8022 124.427 45.0847C124.213 44.226 122.93 44.0113 122.289 44.4407L122.075 44.6553C121.648 45.0847 121.648 45.5141 121.648 46.1582C122.93 50.0226 129.13 47.8757 131.268 46.3729C134.689 44.0113 136.613 39.7175 135.544 35.6384C135.33 34.9943 134.261 35.209 134.261 35.8531Z" fill="#333333"/>
<path d="M140.889 34.9945C141.744 34.5651 142.385 34.1357 143.027 33.921C143.668 33.4916 144.523 33.2769 145.165 32.8476C146.02 32.2035 145.592 30.9154 144.523 31.1301C142.813 31.5594 141.103 32.8476 140.034 33.921C139.606 34.5651 140.248 35.2091 140.889 34.9945Z" fill="#333333"/>
<path d="M122.931 98.1132C121.22 98.3279 120.151 99.616 120.365 101.334C120.579 103.695 123.145 104.769 125.283 104.983C130.2 105.413 135.117 100.689 134.689 95.5369C134.476 93.8194 132.124 93.8194 132.124 95.5369C132.124 98.1132 131.055 100.26 128.917 101.548C128.062 102.192 126.993 102.622 125.924 102.622C125.283 102.622 124.427 102.622 123.786 102.192C122.717 101.548 121.007 99.616 123.145 98.7573C123.358 98.7573 123.358 98.1132 122.931 98.1132Z" fill="#333333"/>
</svg>
