<svg width="226" height="157" viewBox="0 0 226 157" fill="none" xmlns="http://www.w3.org/2000/svg">
<path d="M222.751 70.4146C219.705 65.7067 216.456 61.2034 213.207 56.7001C206.912 47.6936 200.415 38.8918 193.714 30.09C187.216 21.6975 180.921 13.1004 174.017 4.91266C171.175 1.63757 167.723 -0.614063 163.459 -0.204675C158.991 0.204712 154.727 2.45634 150.869 4.70797C140.92 10.4394 130.97 16.1708 121.223 21.9022C101.73 33.1604 82.2367 44.4185 62.7435 55.8814C57.8701 58.7471 52.7938 61.6128 47.9205 64.4785C46.4991 65.2973 47.7174 67.3442 49.1388 66.5254C49.3418 66.5254 49.3418 66.3207 49.5449 66.3207C50.5602 71.6428 51.5754 76.9648 52.5907 82.2868C53.606 88.0183 54.6213 93.9544 53.4029 99.6858C51.1693 109.306 42.8441 115.857 34.5188 120.155C25.7875 124.658 15.6347 127.115 7.71561 133.051C2.03007 137.349 -2.64019 145.947 2.63924 152.497C7.3095 158.228 15.8378 157.409 21.7264 154.339C25.5844 152.087 28.8333 149.017 32.0822 145.947C35.7372 142.671 39.3922 139.601 43.6563 136.94C51.7785 132.027 61.3221 129.162 70.8657 130.39C80.0031 131.618 88.1253 137.145 93.6078 144.309C95.8414 147.175 97.4658 151.678 100.715 153.52C104.573 155.772 108.837 151.883 112.086 150.04C122.035 144.104 131.782 138.373 141.732 132.437C161.022 120.974 180.515 109.511 199.805 98.0483C204.679 95.1825 209.552 92.3168 214.425 89.2464C216.659 87.8136 219.096 86.5854 221.329 85.1526C222.954 84.1291 224.781 82.9009 225.593 81.0587C227.218 77.7836 224.781 73.485 222.751 70.4146ZM218.486 84.3338C213.816 86.9948 209.349 89.8605 204.679 92.5215C186.404 103.37 167.926 114.219 149.651 125.068C140.31 130.595 130.97 136.121 121.832 141.648C117.162 144.309 112.492 147.175 107.822 149.836C105.588 151.269 102.948 153.111 100.512 151.064C98.8872 149.631 98.075 147.584 96.8567 145.742C92.3895 139.396 86.2978 133.87 79.1909 131.004C71.4748 127.729 63.1496 127.729 55.2304 129.776C47.3113 132.027 40.0013 136.326 33.7066 141.648C27.4119 147.175 21.1172 155.567 11.7767 155.158C7.51256 154.953 3.45146 152.906 2.23313 148.403C1.0148 143.286 4.26368 138.373 8.12172 135.302C15.6347 129.366 25.3814 126.91 33.9097 122.816C41.0166 119.336 47.9205 114.424 51.9816 107.259C56.6518 99.0717 55.4335 89.8605 53.606 81.0587C52.5907 75.9413 51.3724 70.824 50.3571 65.7067C68.429 55.2673 86.5009 44.8279 104.573 34.1839C113.913 28.8618 123.254 23.3351 132.594 18.0131C137.265 15.352 141.935 12.691 146.605 10.03C151.072 7.57368 155.336 4.50328 160.21 3.07042C162.646 2.45634 165.083 2.04695 167.317 3.07042C169.956 4.09389 171.581 6.14083 173.205 8.18776C176.454 12.0769 179.5 16.1708 182.749 20.06C189.247 28.4524 195.744 37.0496 202.039 45.6467C208.334 54.0391 214.425 62.6363 220.314 71.2334C221.532 73.0756 222.954 75.1226 223.36 77.3742C224.172 81.0587 221.126 82.6962 218.486 84.3338Z" fill="#333333"/>
<path d="M179.297 37.2543C178.282 33.9792 175.845 31.3182 173.814 28.6572C171.581 25.7915 168.941 23.1305 166.098 20.4695C165.286 19.8554 164.474 18.8319 163.459 18.6272C161.834 18.4225 160.21 19.446 158.788 20.0601C154.93 21.6976 151.072 23.3352 147.214 24.9727C132.188 31.3182 118.38 40.5294 104.573 49.3313C96.4504 54.2439 88.1252 58.9519 80.4091 64.4786C80.003 64.2739 79.5969 64.4786 79.5969 64.888C79.3938 67.549 80.6122 69.5959 82.0336 71.6429C84.4702 74.7133 86.5008 77.579 88.1252 81.0588C89.7496 84.5386 91.5771 88.0184 94.0138 91.0888C95.0291 92.3169 96.0443 93.5451 97.0596 94.9779C98.481 96.8202 99.2932 98.6624 100.105 100.709C100.308 101.528 101.324 101.323 101.527 100.505C101.73 97.639 99.4963 95.1826 97.8718 93.1357C95.4352 90.0653 93.2016 86.9949 91.3741 83.3104C89.7496 80.24 88.5313 76.9649 86.5008 74.0992C84.4702 71.2335 81.4244 69.1865 81.4244 65.2974C90.1557 60.9988 98.2779 55.2674 106.603 50.3547C114.928 45.2374 123.457 39.9153 131.985 35.0027C140.513 29.8854 149.854 26.2009 158.991 22.5164C159.804 22.107 160.819 21.6976 161.631 21.4929C163.459 20.8788 164.271 21.2882 165.692 22.5164C167.52 24.1539 169.144 25.7915 170.768 27.6337C173.611 30.9088 175.845 35.0027 178.891 38.0731C178.891 38.2778 179.5 37.8684 179.297 37.2543Z" fill="#333333"/>
<path d="M20.5084 133.665C18.2748 133.256 16.8534 135.917 17.2595 137.759C17.2595 138.168 17.6656 138.373 18.0717 138.373C17.4625 139.601 18.2748 141.239 19.4931 141.648C21.3206 142.467 22.945 140.625 23.1481 138.987C23.3511 137.349 22.3359 134.074 20.5084 133.665ZM20.1022 140.42C19.29 140.215 18.8839 138.987 19.087 138.373C19.087 138.168 19.087 137.964 18.8839 137.964C19.087 137.349 19.29 135.712 20.1022 135.917C20.9145 136.121 21.5236 137.964 21.5236 138.578C21.5236 139.192 21.1175 140.625 20.1022 140.42Z" fill="#333333"/>
<path d="M183.764 68.3676C180.312 69.1864 177.469 71.6427 174.626 73.4849C170.971 75.9413 167.316 78.6023 163.661 81.0586C159.803 83.7196 155.742 86.3806 151.884 89.2463C148.229 91.7027 144.574 94.7731 140.107 95.1824C145.183 91.2933 150.869 88.0182 156.148 84.5384C162.443 80.4445 168.738 76.5553 175.032 72.4615C175.642 72.0521 175.032 71.2333 174.423 71.6427C168.129 75.7366 161.834 79.6257 155.539 83.7196C149.651 87.4041 143.559 91.0886 137.873 95.1824C137.467 95.3871 137.467 96.2059 138.076 96.2059C142.138 96.6153 145.386 94.7731 148.635 92.5214C152.696 89.8604 156.758 86.9947 160.819 84.129C164.677 81.468 168.535 78.807 172.19 76.3506C174.22 74.9178 176.454 73.4849 178.484 72.0521C179.906 71.0286 182.952 68.777 184.779 69.1864C188.231 70.2098 183.155 74.7131 182.139 75.5319C180.109 76.9647 178.078 78.3976 176.048 79.6257C172.19 82.2868 168.535 84.7431 164.677 87.1994C156.554 92.5214 148.229 97.8435 139.904 102.961C139.701 103.166 139.904 103.37 140.107 103.37C147.62 99.0716 154.93 94.5684 162.24 89.8604C169.347 85.3572 176.657 81.0586 183.155 75.7366C184.779 74.3037 186.81 72.4615 187.013 70.0051C187.622 68.1629 185.591 67.9582 183.764 68.3676Z" fill="#333333"/>
<path d="M154.524 63.8644C147.214 68.3676 139.701 72.6662 132.797 77.9882C129.751 80.4446 126.705 82.9009 123.863 85.7666C122.035 87.6088 118.177 90.4746 118.583 93.545C118.583 93.9543 119.192 93.9543 119.395 93.9543C126.502 89.4511 133 84.9478 139.295 79.2164C139.701 78.807 139.295 78.1929 138.889 78.3976C136.858 79.0117 135.031 80.0352 133.406 81.6727C133 82.0821 133.609 82.6962 134.015 82.2868C134.828 81.468 135.64 80.8539 136.655 80.4446C131.376 84.7431 125.893 88.837 119.802 92.1121C120.411 90.2699 122.644 88.4276 123.66 87.4041C124.878 86.176 126.096 84.9478 127.315 83.7197C130.157 81.0586 133.203 78.6023 136.249 76.3507C142.138 72.0521 148.229 68.1629 154.524 64.2738C154.93 64.0691 154.727 63.6597 154.524 63.8644Z" fill="#333333"/>
<path d="M170.159 37.4589C158.382 36.0261 147.214 42.1669 137.468 47.8983C127.315 53.8344 117.771 60.794 109.04 68.777C108.837 68.9817 109.04 69.1864 109.446 69.1864C118.177 61.8175 127.518 55.2673 137.468 49.5358C146.808 44.0091 157.367 38.073 168.535 38.6871C160.413 44.6232 151.478 49.5358 142.95 54.8579C133.813 60.3846 124.878 66.3207 115.335 71.2334C114.116 67.3442 123.457 62.6362 126.096 61.2034C130.158 58.7471 134.422 56.7001 138.483 54.6532C138.889 54.4485 138.686 53.6297 138.077 53.8344C132.188 56.086 126.503 59.3611 121.223 62.8409C118.38 64.6832 112.086 68.163 114.522 72.4615C114.725 72.6662 115.132 72.8709 115.335 72.6662C124.878 67.5489 134.016 61.4081 143.356 55.8813C152.494 50.3546 162.037 45.2373 170.565 38.6871C170.972 38.2777 170.769 37.4589 170.159 37.4589Z" fill="#333333"/>
<path d="M183.358 48.103C177.063 54.6532 167.113 57.1095 163.052 65.7067C162.849 65.9114 163.052 66.1161 163.255 66.3208C165.286 67.1395 167.519 65.2973 169.347 64.2738C172.19 62.6363 174.829 60.9987 177.469 58.9518C177.672 58.7471 177.469 58.3377 177.266 58.5424C174.22 60.3846 171.174 62.4316 168.128 64.0691C167.113 64.6832 166.301 65.0926 165.083 65.2973C163.458 65.502 164.27 64.8879 164.88 64.0691C165.895 62.6363 167.113 61.2034 168.535 59.9753C173.408 55.6767 179.5 53.2204 183.764 48.3077C183.764 48.3077 183.561 48.103 183.358 48.103Z" fill="#333333"/>
<path d="M79.3944 100.095C68.8356 107.873 57.6676 114.833 45.8904 120.36C49.9515 114.628 56.6523 112.172 61.9317 107.669C62.1348 107.464 61.9317 107.055 61.5256 107.259C55.2309 111.353 47.5148 114.628 43.8598 121.588C43.4537 122.202 44.0629 122.611 44.672 122.407C57.2614 116.675 69.0386 109.511 79.8005 100.504C80.0036 100.3 79.8005 99.8904 79.3944 100.095Z" fill="#333333"/>
<path d="M89.5471 106.85C86.5013 110.33 81.2219 111.968 77.3638 114.219C72.8966 116.676 68.6325 119.541 64.3683 122.407C63.9622 122.612 64.1652 123.021 64.5714 123.226C66.6019 123.84 68.2264 123.226 69.8508 121.998C70.2569 121.793 69.8508 121.383 69.6477 121.383C68.4294 121.998 67.2111 122.612 65.9927 122.407C70.2569 119.541 74.521 116.88 78.9883 114.424C82.8463 112.172 87.3135 110.535 90.3593 107.055C90.1563 106.85 89.7502 106.441 89.5471 106.85Z" fill="#333333"/>
<path d="M77.5667 87.4043C73.5056 88.6325 69.8506 91.4982 66.6017 94.3639C66.3986 94.5686 66.8048 94.978 67.0078 94.7733C70.2567 91.9076 74.1147 90.27 77.7697 88.0184C78.1758 88.0184 77.9728 87.4043 77.5667 87.4043Z" fill="#333333"/>
<path d="M75.9425 64.6833C73.5059 64.6833 71.4753 66.1162 69.4448 67.3444C66.8051 68.7772 64.1653 70.2101 61.7287 71.8476C61.3226 72.0523 61.5256 72.6664 61.9317 72.4617C63.9623 71.6429 65.9928 70.6195 67.8203 69.596C69.8509 68.5725 72.4906 66.5256 74.9273 66.1162C72.4906 72.257 66.8051 76.1462 61.7287 79.8307C61.3226 80.0354 61.7287 80.6495 62.1348 80.4448C68.2264 76.7603 74.3181 72.6664 76.5517 65.7068C76.7547 65.0927 76.3486 64.6833 75.9425 64.6833Z" fill="#333333"/>
<path d="M153.102 16.5803C141.731 19.0366 131.782 25.3821 121.832 30.9089C110.664 37.0497 99.6991 43.3952 88.5311 49.536C88.125 49.7407 88.5311 50.1501 88.7341 49.9454C99.6991 44.0093 110.461 38.0731 121.223 32.137C131.173 26.6103 141.122 20.2648 152.29 17.6038C151.884 18.4226 151.275 19.0366 150.26 19.2413C149.854 19.2413 150.057 20.0601 150.26 19.8554C152.087 19.6507 153.102 18.6273 153.509 16.9897C153.712 16.785 153.509 16.5803 153.102 16.5803Z" fill="#333333"/>
<path d="M185.388 93.3403C177.063 97.0248 169.144 101.323 161.428 106.236C153.712 110.944 145.996 115.857 138.686 121.383C138.28 121.588 138.686 122.202 139.092 121.997C146.808 117.085 154.118 111.763 161.834 107.055C168.941 102.756 176.048 98.6624 183.561 95.1826C174.627 103.78 163.865 110.125 153.103 116.266C142.138 122.407 129.955 128.138 120.817 136.735C120.614 136.94 120.817 137.145 121.02 136.94C126.3 133.256 131.579 129.571 137.265 126.091C142.95 122.612 148.839 119.541 154.727 116.266C165.895 109.921 177.063 103.37 185.998 93.9544C186.404 93.7497 185.998 93.3403 185.388 93.3403Z" fill="#333333"/>
<path d="M102.948 116.061C101.324 114.424 96.0443 117.494 94.6229 118.518C91.1709 120.565 88.5312 123.226 86.5007 126.501C86.2976 126.91 86.9068 127.32 87.1098 126.91C88.7343 124.454 90.9679 122.202 93.4045 120.36C94.4198 119.746 95.4351 119.132 96.4504 118.518C97.2626 118.108 99.4962 116.88 100.715 116.88C104.979 117.085 97.2626 123.226 96.2473 123.84C94.2168 125.068 92.1862 126.296 89.9526 127.115C91.9832 125.068 94.2168 123.021 96.6534 121.383C97.0595 121.179 96.6534 120.565 96.2473 120.769C93.2015 123.021 90.3587 125.273 87.719 128.138C87.3129 128.548 87.719 129.162 88.3282 128.957C92.1862 127.729 95.8412 125.887 99.0901 123.226C100.308 122.202 104.979 118.313 102.948 116.061Z" fill="#333333"/>
<path d="M112.492 133.256C108.634 135.098 104.979 137.759 101.324 140.01C101.121 140.215 101.324 140.625 101.527 140.42C105.182 138.168 109.243 136.531 112.898 133.87C113.101 133.665 112.898 133.051 112.492 133.256Z" fill="#333333"/>
<path d="M116.553 137.964C112.289 139.601 108.024 142.467 104.573 145.332C104.369 145.537 104.573 145.742 104.776 145.742C106.806 144.718 108.837 143.49 110.664 142.262C112.695 141.034 114.725 140.01 116.553 138.782C117.162 138.373 116.959 137.759 116.553 137.964Z" fill="#333333"/>
<path d="M214.02 77.1697C210.771 78.6025 208.131 81.6729 205.288 83.7199C202.039 85.9715 198.384 87.4044 195.339 89.8607C194.932 90.0654 195.135 90.8841 195.745 90.6795C199.197 89.8607 202.852 87.1997 205.694 84.948C208.74 82.6964 211.177 79.626 214.426 77.5791C214.426 77.5791 214.223 77.1697 214.02 77.1697Z" fill="#333333"/>
</svg>
