<svg width="159" height="132" viewBox="0 0 159 132" fill="none" xmlns="http://www.w3.org/2000/svg">
<path d="M155.321 81.0895C148.619 65.7376 133.245 51.3042 115.899 51.173C116.556 49.2048 116.162 46.843 115.899 44.8748C115.374 41.8569 114.717 38.7078 113.928 35.6899C112.746 30.7039 109.723 27.0299 105.255 24.4056C105.124 24.4056 104.993 24.4056 104.993 24.4056C104.598 24.012 104.204 23.7496 103.679 23.6184C105.913 19.1571 107.621 14.3023 109.723 9.70982C109.986 9.18497 109.329 8.79133 108.935 9.18497C107.489 11.2844 106.175 13.2526 104.993 15.6144C104.467 16.7953 103.81 17.845 102.89 18.7635C102.102 19.682 101.051 20.2068 100.262 21.1253C98.4224 23.2247 104.204 24.7993 105.387 25.5866C105.518 25.7178 105.65 25.5866 105.65 25.4553C106.964 26.7675 108.409 27.9484 109.592 29.3917C111.3 31.3599 112.089 33.5905 112.614 36.2148C113.14 38.7078 113.665 41.2009 114.191 43.6939C114.454 45.006 114.717 46.3182 114.717 47.6303C114.717 48.8112 114.585 49.8609 114.454 51.0418C113.403 51.0418 112.351 51.173 111.169 51.3042C106.964 50.7794 103.416 53.01 99.7365 54.847C95.9257 56.9464 92.2464 59.177 88.9613 61.6701C82.1282 66.9186 77.1348 73.8728 75.2952 82.4017C73.4555 90.6681 74.1125 99.9842 78.1861 107.332C80.2886 111.137 83.1795 114.418 86.0704 117.435C88.9613 120.453 91.9836 123.471 95.4001 125.964C102.365 131.213 112.351 132.263 120.761 131.606C129.434 130.95 137.975 128.195 145.203 123.34C152.036 118.748 156.766 112.318 158.212 104.183C159.92 96.5726 158.474 88.4374 155.321 81.0895ZM101.576 21.6502C102.233 20.9941 103.022 20.338 103.679 19.682C104.467 18.7635 104.993 17.7138 105.518 16.7953C104.598 19.0259 103.679 21.2565 103.022 23.4872C103.022 23.4872 103.022 23.4872 102.89 23.4872C102.496 23.3559 102.102 23.0935 101.708 22.8311C101.182 22.3062 101.051 22.175 101.576 21.6502ZM148.882 118.748C137.187 129.769 117.739 133.443 102.627 128.195C98.4224 126.752 95.1373 123.996 91.9836 120.978C89.2241 118.354 86.4646 115.73 83.9679 112.843C78.3175 106.282 75.8208 98.5408 76.215 90.012C76.6092 80.5647 80.42 72.0359 87.3844 65.7376C90.6695 62.851 94.3489 60.4891 98.1596 58.2585C101.313 56.4215 104.598 54.0597 108.146 53.01C108.278 53.4037 108.541 53.6661 109.066 53.5349C126.412 49.4673 142.443 61.9325 150.984 75.9722C158.606 88.8311 160.84 107.463 148.882 118.748Z" fill="black"/>
<path d="M149.539 77.9403C147.305 74.2664 143.626 72.2982 140.866 69.0179C139.421 67.3121 137.975 65.4751 136.267 64.0318C134.559 62.5884 132.719 61.4075 130.88 60.2266C127.069 57.7336 123.389 56.4214 118.922 56.2902C114.06 56.2902 109.066 56.2902 104.204 56.8151C103.81 56.8151 103.679 57.2087 103.81 57.6023C102.365 58.3896 101.051 59.7018 99.868 60.8827C96.9771 63.5069 92.9035 64.4254 89.6184 66.5248C86.8589 68.3618 84.3622 70.8548 83.4423 74.1352C82.9167 75.9721 83.0481 77.6779 83.3109 79.5149C83.4423 81.7455 83.3109 83.7137 82.6539 85.8131C81.6027 89.487 80.2886 92.7674 81.077 96.7037C81.4713 98.4095 82.1283 99.8528 83.0481 101.296C84.3622 103.264 85.0192 105.233 85.8076 107.463C86.9903 111.006 89.6184 113.499 92.2465 115.992C95.2688 118.879 98.2911 121.372 101.97 123.209C105.387 124.914 109.198 127.145 113.008 127.801C117.213 128.457 121.813 127.408 126.018 126.883C129.171 126.489 132.456 126.227 135.479 124.783C136.661 124.258 137.844 123.471 138.764 122.421C139.158 121.897 139.421 121.372 139.815 120.847C140.472 119.928 141.392 119.404 142.312 118.879C148.882 115.336 151.247 107.988 152.167 101.034C152.956 93.5546 153.613 84.8946 149.539 77.9403ZM151.247 93.9483C150.853 101.034 150.196 109.563 145.071 115.074C143.889 116.254 142.575 117.304 141.129 117.96C140.078 118.485 139.158 119.01 138.37 120.06C137.45 121.372 136.793 122.421 135.347 123.209C134.033 123.996 132.456 124.39 131.011 124.783C127.463 125.571 123.652 125.833 119.973 126.227C118.002 126.489 116.031 126.751 114.06 126.62C111.826 126.489 109.723 125.571 107.752 124.652C104.467 123.077 101.051 121.634 98.1597 119.535C95.1374 117.435 92.3779 114.811 89.8812 112.056C88.5671 110.612 87.3845 109.169 86.8589 107.201C86.3332 105.626 86.0704 103.92 85.1506 102.477C84.2308 100.903 83.1795 99.5904 82.6539 97.8847C81.9969 95.7853 81.8655 93.6859 82.2597 91.5864C82.9167 88.0437 84.7564 84.6322 84.625 80.9582C84.4936 78.8588 84.0994 76.7594 84.625 74.66C85.1506 72.6918 86.4647 70.8548 88.0415 69.5427C91.0638 66.7872 94.8746 65.7375 98.4225 63.6381C100.919 62.1948 102.759 58.9145 105.518 57.996C109.066 57.6023 112.746 57.7336 116.294 57.7336C120.367 57.7336 124.046 57.8648 127.726 59.833C131.011 61.5387 134.427 63.7693 137.056 66.3936C138.238 67.5745 139.158 68.8866 140.341 70.1988C141.655 71.6421 143.1 72.823 144.546 74.0039C150.327 78.99 151.642 86.4691 151.247 93.9483Z" fill="black"/>
<path d="M113.403 87.5189C112.483 83.7138 109.198 81.8768 107.095 78.7277C105.256 75.841 104.204 72.0358 101.051 70.0677C100.788 69.9364 100.262 70.3301 100.525 70.5925C101.576 72.0358 102.89 73.348 103.942 74.9225C104.861 76.4971 105.387 78.0716 106.438 79.515C107.227 80.8271 108.409 81.7456 109.461 82.7953C110.906 84.2386 111.957 85.9444 113.009 87.6502C113.14 87.9126 113.403 87.7814 113.403 87.5189Z" fill="black"/>
<path d="M109.986 88.9622C109.329 87.7813 107.621 87.7813 106.438 87.5189C104.336 86.994 102.233 86.4692 100.131 85.8131C96.0573 84.6322 92.1151 82.9264 88.0416 82.0079C87.9102 82.0079 87.7788 82.2704 87.9102 82.2704C91.0639 83.8449 94.4804 85.0258 97.7655 86.0755C99.6052 86.7316 101.445 87.2564 103.285 87.7813C104.204 88.0437 105.124 88.3061 106.044 88.4374C106.964 88.6998 108.409 88.6998 109.066 89.3558C109.592 90.0119 110.249 89.4871 109.986 88.9622Z" fill="black"/>
<path d="M110.249 92.5049C107.358 94.0795 104.204 95.1292 101.05 96.3101C98.6852 97.2286 95.4001 98.2783 93.6918 100.246C93.429 100.509 93.6918 101.034 94.086 100.771C95.4001 100.246 96.5827 99.328 97.8968 98.6719C99.4736 97.8847 101.05 97.3598 102.759 96.7037C105.518 95.654 108.015 94.4731 110.38 92.7674C110.643 92.6361 110.512 92.3737 110.249 92.5049Z" fill="black"/>
<path d="M113.797 96.4414C112.746 99.9841 110.249 103.002 108.672 106.414C108.015 107.726 107.621 109.169 107.358 110.612C106.964 112.581 106.307 114.155 105.518 115.861C105.387 116.254 105.781 116.517 106.044 116.254C107.226 115.336 107.621 113.893 108.015 112.581C108.541 110.481 108.935 108.513 109.723 106.676C111.3 103.264 113.403 100.247 114.322 96.5726C114.454 96.1789 113.928 96.0477 113.797 96.4414Z" fill="black"/>
<path d="M120.893 116.123C120.761 114.024 120.63 111.924 120.367 109.694C119.973 105.626 119.184 101.821 117.87 97.8846C117.87 97.7534 117.607 97.7534 117.607 98.0158C118.79 102.215 119.184 106.807 119.447 111.137C119.579 113.105 119.71 115.205 119.841 117.173C119.973 119.01 119.973 120.978 120.63 122.684C120.761 123.077 121.287 122.815 121.287 122.553C121.681 120.453 121.024 118.223 120.893 116.123Z" fill="black"/>
<path d="M146.385 89.8807C139.027 91.5865 131.142 91.7177 123.652 91.5865C124.046 90.7992 124.309 90.1432 123.915 89.0935C123.258 87.6501 121.944 86.8628 120.498 86.4692C119.71 86.2068 118.79 86.0756 117.87 86.0756C117.082 86.0756 115.374 87.1253 114.717 86.8628C114.454 86.7316 114.191 87.1253 114.322 87.2565C114.717 87.6501 114.848 87.7813 115.374 87.7813C115.899 87.7813 115.899 87.5189 116.425 87.3877C117.608 86.9941 118.527 86.9941 119.71 87.2565C121.156 87.6501 123.389 88.5686 122.995 90.4056C122.864 91.3241 122.338 92.3738 122.075 93.1611C121.681 94.6044 119.973 94.998 118.659 95.6541C117.345 96.1789 116.819 96.4414 115.637 95.5229C115.505 95.3917 115.505 95.1292 115.242 95.1292C113.928 94.6044 113.534 95.2605 112.089 93.2923C111.826 92.8986 111.432 90.2744 111.169 90.7992C111.169 90.668 111.037 90.5368 111.037 90.668C110.512 91.4553 110.775 91.8489 111.169 92.505C111.694 93.6859 111.826 95.1292 113.271 95.5229C114.06 95.6541 114.454 95.3917 115.111 95.9165C115.505 96.1789 115.637 96.5726 116.162 96.7038C117.608 97.2286 119.184 96.1789 120.498 95.6541C120.63 95.5229 120.761 95.5229 120.893 95.3917C120.893 95.5229 120.761 95.6541 120.893 95.6541C126.675 101.821 132.325 108.513 138.632 114.155C139.158 114.68 139.815 113.893 139.421 113.368C133.77 106.938 127.332 101.165 121.287 95.1292L121.156 94.998C122.338 94.342 122.601 93.8171 122.995 92.2426C122.995 92.1114 123.127 91.8489 123.127 91.7177C127.463 91.8489 131.668 91.8489 135.873 91.5865C137.844 91.4553 139.946 91.3241 141.917 91.0616C143.363 90.9304 145.203 90.9304 146.385 90.0119C147.174 90.4056 146.911 89.8807 146.385 89.8807Z" fill="black"/>
<path d="M137.712 74.3976C133.113 78.99 128.514 83.0576 122.732 86.2067C122.47 86.3379 122.732 86.7316 122.995 86.6003C128.777 83.9761 134.427 80.0397 138.37 75.0536C138.632 74.66 138.107 74.0039 137.712 74.3976Z" fill="black"/>
<path d="M127.331 65.2127C126.017 68.2306 124.572 71.1172 123.258 74.1351C122.075 76.8906 120.498 79.6461 119.71 82.5328C119.579 82.7952 119.973 82.9264 120.104 82.664C121.812 80.0397 122.995 77.0218 124.309 74.2663C125.623 71.3797 126.937 68.6242 128.251 65.7375C128.514 65.2127 127.726 64.6878 127.331 65.2127Z" fill="black"/>
<path d="M115.899 75.1849C115.637 72.9543 115.637 70.33 114.848 68.2306C114.717 67.837 114.322 67.9682 114.191 68.3618C113.928 70.8548 114.585 73.6103 114.979 76.1034C115.242 78.4652 115.637 80.827 116.162 83.0576C116.294 83.3201 116.688 83.3201 116.688 82.9264C116.556 80.3022 116.162 77.6779 115.899 75.1849Z" fill="black"/>
<path d="M77.792 107.332C76.6094 107.201 75.4267 107.988 74.2441 108.382C72.6672 108.775 70.9589 108.907 69.3821 109.038C66.2284 109.169 62.9432 109.169 59.7895 108.907C56.2416 108.513 53.0879 107.332 50.0656 105.233C47.4375 103.527 44.9408 101.034 42.1813 99.7217C41.6556 99.4592 41.13 100.115 41.5242 100.509C42.7069 101.69 44.1523 102.608 45.5978 103.658C47.1746 104.839 48.6201 105.889 50.197 106.938C53.0879 108.775 56.2416 109.825 59.7895 110.219C63.3375 110.612 67.0168 110.612 70.5647 110.35C72.5358 110.219 77.0036 109.825 77.792 107.594C77.9234 107.463 77.9234 107.332 77.792 107.332Z" fill="black"/>
<path d="M105.518 13.6461C103.679 13.7773 101.839 13.9086 99.9993 14.171C99.7365 13.7774 99.0795 13.6461 98.8167 14.171C98.8167 14.171 98.8167 14.171 98.8167 14.3022C97.8968 14.3022 97.1084 14.0398 96.4514 13.2525C95.7944 12.5964 95.1373 11.9404 94.3489 11.4155C91.8522 9.18491 88.9613 7.34793 86.0704 5.77337C80.0258 2.62427 73.3241 0.787291 66.6225 0.26244C51.7737 -1.04969 36.9249 3.80518 24.1787 11.2843C20.2365 13.6461 16.5572 16.2704 12.7464 18.6322C8.80429 21.1253 4.59933 23.2247 0.262965 25.0616C-0.39406 25.3241 0.13156 26.3738 0.788585 26.2426C4.59933 25.5865 8.41007 24.7992 12.2208 25.1929C15.9002 25.5865 19.4481 26.8986 22.8646 28.0795C29.6977 30.1789 36.5307 32.8032 43.6266 34.1153C45.2035 34.3777 46.9117 34.6402 48.4886 34.7714C48.3572 34.7714 48.2258 34.7714 48.0944 34.9026C39.1588 44.4811 31.4059 56.4215 29.9605 69.674C29.5663 72.9543 29.6977 76.3658 30.2233 79.7773C30.7489 83.3201 32.3258 86.4692 33.377 89.8807C34.5597 93.8171 32.4572 96.5726 31.0117 99.9841C29.8291 102.74 29.5663 106.02 30.4861 108.907C30.7489 109.825 31.1431 110.744 32.063 111.006C33.5084 111.4 35.4795 110.481 36.7935 110.087C41.1299 108.907 45.3349 107.594 49.8026 107.201C49.934 107.201 49.934 106.938 49.8026 106.938C46.6489 106.545 43.6266 107.332 40.6043 108.119C39.1588 108.513 37.582 108.907 36.1365 109.3C35.4795 109.431 34.6911 109.694 34.034 109.825C31.9316 110.087 31.6687 109.3 31.2745 107.726C30.4861 104.052 31.8002 101.034 33.377 97.7535C34.5597 95.5229 35.3481 93.161 34.8225 90.668C34.1654 87.6501 32.5886 84.8946 31.9316 81.8768C31.1431 78.5964 30.8803 75.1849 31.0117 71.9046C31.4059 65.3439 33.377 58.9145 36.3993 53.01C39.6845 46.7117 44.1522 41.2008 48.8828 35.8211L49.0142 35.6899C49.1456 35.5587 49.1456 35.5587 49.277 35.4274C49.4084 35.2962 49.5398 35.165 49.6712 34.9026C54.4018 35.165 59.2638 34.6402 63.9944 33.5905C70.8274 32.0159 77.7919 30.1789 84.2307 27.2923C90.2754 24.668 95.9258 20.7316 99.7365 15.2207C101.708 14.9583 103.679 14.6958 105.65 14.4334C106.044 14.4334 105.913 13.6461 105.518 13.6461ZM63.863 32.0159C56.6357 33.7217 49.5398 34.1153 42.1811 32.5408C35.3481 30.9662 28.7778 28.6044 22.0762 26.3738C18.6597 25.3241 15.3745 24.0119 11.8266 23.7495C9.59272 23.6183 7.35883 23.7495 5.12495 24.0119C10.9068 21.1253 16.2944 17.5825 21.8134 14.0398C28.3836 9.84097 35.4795 6.29822 43.101 4.06761C57.1613 1.43945e-05 72.6671 0.131227 85.8076 7.0855C89.4869 9.05369 92.6406 11.4155 95.663 14.171C96.4514 14.8271 96.977 15.2207 97.8968 15.2207C90.0126 25.5865 75.9522 29.2605 63.863 32.0159Z" fill="black"/>
<path d="M88.9612 16.1391C84.0992 14.4334 79.2372 14.3022 74.1124 14.9582C68.1992 15.7455 62.4174 17.0576 56.5041 17.0576C53.7446 17.0576 50.9851 16.7952 48.2256 17.0576C45.2033 17.32 42.3124 17.7137 39.2901 17.9761C33.5083 18.6322 27.7265 19.2882 21.9446 19.9443C21.1562 20.0755 21.1562 21.2564 21.9446 21.1252C33.1141 19.8131 44.4149 17.7137 55.7157 18.1073C66.4909 18.501 78.0546 12.99 88.6984 16.664C89.0926 16.7952 89.224 16.2703 88.9612 16.1391Z" fill="black"/>
<path d="M46.1233 19.8131C44.4151 20.9941 42.7068 22.3062 41.1299 23.7495C40.3415 24.4056 39.5531 25.1929 38.7647 25.7177C37.8448 26.505 36.6622 27.0298 35.8738 27.9483C35.6109 28.2107 35.8738 28.4732 36.1366 28.4732C37.9762 28.0795 39.5531 26.3738 40.8671 25.1929C42.7068 23.4871 44.2837 21.6501 46.3861 20.2068C46.649 19.9443 46.3861 19.5507 46.1233 19.8131Z" fill="black"/>
<path d="M51.511 20.7317C50.4597 22.4375 49.1457 23.8808 47.7002 25.1929C46.2548 26.3738 44.6779 27.1611 43.2324 28.342C42.8382 28.6045 43.2324 29.1293 43.6267 28.9981C45.3349 28.4732 47.0432 27.0299 48.3572 25.849C49.8027 24.4056 50.9853 22.8311 52.0366 20.9941C52.2994 20.7317 51.7738 20.338 51.511 20.7317Z" fill="black"/>
<path d="M61.2349 19.1571C59.9208 21.6501 57.0299 23.0935 54.9275 24.9304C53.7448 25.9801 52.6936 27.1611 51.2481 28.0795C50.1969 28.6044 49.1456 29.1293 48.62 30.179C48.4886 30.5726 48.7514 30.9662 49.1456 30.7038C50.4597 30.0477 51.9052 29.1293 52.9564 28.2108C54.139 27.2923 54.9275 26.2426 56.1101 25.1929C58.2126 23.3559 60.3151 21.7813 61.6291 19.2883C62.0233 19.1571 61.4977 18.7634 61.2349 19.1571Z" fill="black"/>
<path d="M69.5132 20.3381C67.9364 21.519 66.4909 22.8311 64.9141 24.012C63.6 25.0617 61.8918 26.1114 60.9719 27.5548C60.8405 27.8172 61.1033 28.342 61.4975 28.2108C63.0744 27.5548 64.257 26.1114 65.4397 25.0617C67.0165 23.6184 68.462 22.3063 70.0389 20.8629C70.3017 20.6005 69.7761 20.0756 69.5132 20.3381Z" fill="black"/>
<path d="M81.2084 19.0259C80.0257 19.9443 78.8431 20.7316 77.529 21.5189C76.6092 22.0438 74.3753 23.7495 73.1927 23.4871C72.667 23.3559 72.4042 24.0119 72.7985 24.2744C73.8497 25.0616 75.6894 23.4871 76.6092 22.9622C78.3175 21.9125 79.8943 20.7316 81.4712 19.4195C81.734 19.2883 81.3398 18.8946 81.2084 19.0259Z" fill="black"/>
<path d="M76.4778 12.4653C72.5357 11.678 68.9878 9.84103 65.177 8.79133C63.4688 8.39769 61.7605 8.13526 60.0522 8.00405C59.001 7.87284 57.8183 7.87284 56.7671 7.87284C55.7159 7.87284 53.8762 8.13526 53.0878 7.21678C52.6936 6.82314 52.1679 7.34799 52.4307 7.74163C53.0878 9.05375 54.4018 8.92254 55.7159 8.92254C58.344 8.92254 60.9721 9.05375 63.6002 9.5786C67.9365 10.4971 72.0101 12.4653 76.4778 12.8589C76.6093 12.8589 76.6093 12.5965 76.4778 12.4653Z" fill="black"/>
<path d="M61.1036 13.6461C58.4755 12.4652 55.8474 12.334 52.9565 12.2028C49.6714 12.0716 46.1234 11.5467 42.7069 11.8092C42.3127 11.8092 42.1813 12.4652 42.5755 12.4652C48.4887 13.5149 55.059 11.9404 60.7094 14.171C61.235 14.171 61.3664 13.7774 61.1036 13.6461Z" fill="black"/>
<path d="M35.4794 15.7455C33.2455 15.4831 30.6174 15.2207 28.3835 15.6143C27.9893 15.7455 28.1207 16.2704 28.5149 16.2704C30.8802 16.5328 33.2455 16.2704 35.4794 16.5328C35.8736 16.5328 35.8736 15.8767 35.4794 15.7455Z" fill="black"/>
<path d="M37.8448 96.9661C37.1877 96.7037 36.5307 96.4413 35.8737 96.1789C35.6109 96.0477 35.3481 96.4413 35.6109 96.5725C36.1365 96.9661 36.5307 97.3598 37.0563 97.6222C37.4505 97.7534 38.239 98.2783 38.5018 97.7534C38.896 97.3598 38.239 97.0974 37.8448 96.9661Z" fill="black"/>
<path d="M36.7934 103.789C36.5306 103.658 36.2678 103.527 36.005 103.264C35.7422 103.002 35.6108 102.74 35.6108 102.477C35.4794 102.084 34.8223 102.215 34.9537 102.608C35.0851 103.396 35.7422 104.577 36.662 104.577C36.9248 104.445 37.0562 103.92 36.7934 103.789Z" fill="black"/>
<path d="M35.6109 106.807C35.2167 106.807 34.6911 106.807 34.2969 106.676C34.0341 106.545 33.9027 107.07 34.1655 107.07C34.4283 107.201 34.6911 107.332 34.9539 107.332C35.2167 107.332 35.4795 107.332 35.7423 107.332C36.0052 107.201 35.8737 106.807 35.6109 106.807Z" fill="black"/>
<path d="M61.3664 102.871C60.9722 102.608 60.578 102.346 60.0523 102.215C59.9209 102.215 59.6581 102.477 59.7895 102.608C60.1838 102.871 60.578 103.133 61.1036 103.264C61.3664 103.396 61.6292 103.133 61.3664 102.871Z" fill="black"/>
<path d="M69.3818 101.821C68.8562 101.821 68.8562 102.477 69.3818 102.477C69.9074 102.477 69.9074 101.821 69.3818 101.821Z" fill="black"/>
<path d="M56.1101 95.6541C55.5844 95.2604 55.0588 94.8668 54.5332 94.6044C54.139 94.342 53.7448 94.998 54.139 95.2604C54.6646 95.6541 55.1902 95.9165 55.7158 96.1789C56.1101 96.3102 56.5043 95.9165 56.1101 95.6541Z" fill="black"/>
<path d="M65.4397 90.9305C64.9141 90.9305 64.9141 91.849 65.4397 91.849C66.0967 91.849 66.0967 90.9305 65.4397 90.9305Z" fill="black"/>
<path d="M50.0653 83.3201C49.9339 82.5329 48.8827 82.5329 48.3571 83.0577C48.0943 83.4514 48.4885 83.845 48.8827 83.5826C49.1455 83.3201 49.4083 83.5826 49.5397 83.7138C49.6711 83.845 50.0653 83.5826 50.0653 83.3201Z" fill="black"/>
<path d="M59.3951 85.2883C58.7381 85.2883 58.7381 86.338 59.3951 86.338C60.0521 86.2068 60.0521 85.2883 59.3951 85.2883Z" fill="black"/>
<path d="M41.6555 89.6184C41.1299 89.6184 41.1299 90.4056 41.6555 90.4056C42.1811 90.4056 42.1811 89.6184 41.6555 89.6184Z" fill="black"/>
<path d="M37.1876 71.9047C36.662 71.9047 36.662 72.6919 37.1876 72.6919C37.7132 72.6919 37.7132 71.9047 37.1876 71.9047Z" fill="black"/>
<path d="M57.8182 75.185C57.1612 75.185 57.1612 76.1035 57.8182 76.1035C58.4752 76.1035 58.4752 75.185 57.8182 75.185Z" fill="black"/>
<path d="M42.5753 80.5647C42.4439 80.171 42.3125 79.7774 42.3125 79.3837C42.1811 78.8589 41.2612 79.1213 41.524 79.6462C41.6554 80.0398 41.7868 80.4334 41.9183 80.8271C42.0497 81.2207 42.7067 81.0895 42.5753 80.5647Z" fill="black"/>
<path d="M46.9119 61.1451C46.9119 60.8827 46.7805 60.6202 46.6491 60.3578C46.5177 60.0954 46.2548 59.9642 45.992 60.0954C45.7292 60.2266 45.5978 60.489 45.7292 60.7515C45.8606 61.0139 46.1234 61.2763 46.2548 61.5387C46.5177 61.6699 46.9119 61.4075 46.9119 61.1451Z" fill="black"/>
<path d="M50.4595 73.348C50.3281 73.348 50.1967 73.2167 50.0653 73.2167C49.6711 72.9543 49.2769 73.6104 49.6711 73.8728C49.8025 73.8728 49.9339 74.004 50.0653 74.004C50.4595 74.2664 50.8537 73.6104 50.4595 73.348Z" fill="black"/>
<path d="M43.6265 66.2625C43.4951 66.1313 43.3637 66.1313 43.3637 66.1313L43.2323 66.0001C43.2323 65.7376 42.9695 65.4752 42.7067 65.6064C42.4439 65.6064 42.3125 65.8689 42.3125 66.1313C42.4439 66.6561 42.9695 67.181 43.4951 66.9186C43.7579 66.6561 43.8893 66.3937 43.6265 66.2625Z" fill="black"/>
<path d="M69.3821 70.7236C68.725 70.7236 68.725 71.6421 69.3821 71.6421C70.0391 71.6421 70.0391 70.7236 69.3821 70.7236Z" fill="black"/>
<path d="M68.9878 80.827C68.8564 80.827 68.725 80.6958 68.5936 80.6958C68.3308 80.5646 68.068 80.6958 67.9366 80.827C67.8052 81.0894 67.9366 81.3518 68.068 81.4831C68.1994 81.4831 68.3308 81.6143 68.4622 81.6143C68.725 81.7455 68.9878 81.6143 69.1192 81.4831C69.382 81.3518 69.2506 80.9582 68.9878 80.827Z" fill="black"/>
<path d="M81.4711 65.0816C81.3397 64.9504 81.0769 64.8192 80.9455 64.6879C80.4199 64.4255 80.0257 65.0816 80.5513 65.4752C80.6827 65.6064 80.9455 65.7376 81.0769 65.8689C81.6025 66.1313 81.9968 65.4752 81.4711 65.0816Z" fill="black"/>
<path d="M74.7695 74.3977C74.6381 74.3977 74.6381 74.2664 74.5067 74.2664C74.1125 74.004 73.7183 74.5289 73.8497 74.9225C73.8497 75.0537 73.9811 75.0537 73.9811 75.1849C74.1125 75.4474 74.5067 75.5786 74.7695 75.3161C75.0323 74.9225 75.0323 74.5289 74.7695 74.3977Z" fill="black"/>
<path d="M57.2928 63.1133C56.7672 63.1133 56.7672 63.9006 57.2928 63.9006C57.8184 63.9006 57.8184 63.1133 57.2928 63.1133Z" fill="black"/>
<path d="M49.9339 47.7614C49.4083 47.7614 49.4083 48.5487 49.9339 48.5487C50.3282 48.5487 50.3282 47.7614 49.9339 47.7614Z" fill="black"/>
<path d="M68.068 46.7118C67.9366 46.3182 67.8052 45.9245 67.6738 45.5309C67.5424 45.1373 66.754 45.2685 66.8854 45.7933C67.0168 46.187 67.1482 46.5806 67.2796 46.9742C67.411 47.3679 68.1994 47.1055 68.068 46.7118Z" fill="black"/>
<path d="M57.1613 54.7158C57.1613 54.3221 56.6357 54.0597 56.2415 54.0597C55.7159 54.0597 55.8473 54.7158 56.3729 54.7158C56.5043 54.7158 56.6357 54.847 56.6357 54.9782C56.6357 55.1094 56.8985 55.1094 57.0299 55.1094C57.1613 54.9782 57.1613 54.847 57.1613 54.7158Z" fill="black"/>
<path d="M69.382 62.7197C69.382 62.5885 69.2506 62.3261 69.2506 62.1948C68.9878 61.8012 68.3308 62.1948 68.5936 62.5885C68.725 62.7197 68.725 62.8509 68.8564 62.9821C68.9878 63.2445 69.382 62.9821 69.382 62.7197Z" fill="black"/>
<path d="M84.625 54.847C84.4936 54.7158 84.3622 54.5846 84.2308 54.5846C84.0994 54.5846 83.968 54.5846 83.8366 54.5846C83.7052 54.5846 83.5738 54.4533 83.4423 54.4533C83.1795 54.3221 82.9167 54.847 83.1795 54.9782C83.3109 54.9782 83.4423 55.1094 83.5738 55.2406C83.5738 55.3718 83.7052 55.3718 83.8366 55.503C83.968 55.6343 84.0994 55.6343 84.2308 55.6343C84.7564 55.503 84.8878 55.1094 84.625 54.847Z" fill="black"/>
<path d="M96.5828 54.322H95.7944C95.2688 54.322 95.2688 55.1093 95.7944 55.1093H96.5828C97.1084 55.2405 97.1084 54.322 96.5828 54.322Z" fill="black"/>
<path d="M86.9902 57.9961C86.4646 57.9961 86.4646 58.9146 86.9902 58.9146C87.5158 58.9146 87.5158 57.9961 86.9902 57.9961Z" fill="black"/>
<path d="M88.9612 43.0377L88.8298 42.9065C88.4355 42.5129 87.9099 43.0377 88.3041 43.4314L88.4356 43.5626C88.8298 43.825 89.3554 43.3002 88.9612 43.0377Z" fill="black"/>
<path d="M103.153 46.9742H103.022C102.496 46.9742 102.496 47.8927 103.022 47.7615H103.153C103.679 47.7615 103.679 46.9742 103.153 46.9742Z" fill="black"/>
<path d="M91.1952 45.662C90.801 45.5308 90.4068 45.5308 89.8812 45.662C89.3556 45.662 89.3556 46.4493 89.8812 46.4493C90.2754 46.4493 90.6696 46.4493 91.1952 46.4493C91.4581 46.3181 91.4581 45.7933 91.1952 45.662Z" fill="black"/>
<path d="M106.176 31.0974C106.044 31.0974 105.781 30.9662 105.65 30.9662C105.387 30.835 105.124 31.0974 105.124 31.2286C104.993 31.491 105.256 31.7535 105.387 31.7535C105.518 31.7535 105.781 31.8847 105.913 31.8847C106.175 32.0159 106.438 31.7535 106.438 31.6222C106.57 31.491 106.438 31.2286 106.176 31.0974Z" fill="black"/>
<path d="M106.438 40.6759H106.307C106.044 40.6759 106.044 41.2008 106.307 41.2008H106.438C106.832 41.2008 106.832 40.6759 106.438 40.6759Z" fill="black"/>
<path d="M97.1084 37.5269C96.5828 37.5269 96.5828 38.3141 97.1084 38.3141C97.6341 38.4453 97.6341 37.5269 97.1084 37.5269Z" fill="black"/>
<path d="M109.723 47.4991C109.592 47.4991 109.461 47.3678 109.329 47.3678C109.066 47.2366 108.804 47.6303 109.066 47.7615C109.198 47.8927 109.329 47.8927 109.461 48.0239C109.723 48.1551 109.986 47.6303 109.723 47.4991Z" fill="black"/>
<path d="M97.634 28.8669C97.2397 28.4732 96.4513 29.1293 96.9769 29.5229C97.1083 29.6541 97.2397 29.7854 97.5025 29.7854C97.7653 29.7854 97.8968 29.6541 97.8968 29.3917C97.8968 29.1293 97.7654 28.9981 97.634 28.8669Z" fill="black"/>
<path d="M84.0992 36.6083C83.8364 36.3459 83.3108 36.0834 82.9166 35.9522C82.5224 35.6898 81.9967 36.3459 82.5224 36.6083C82.9166 36.8707 83.3108 37.1331 83.8364 37.1331C84.0992 37.2643 84.362 36.8707 84.0992 36.6083Z" fill="black"/>
<path d="M77.9232 45.006C77.529 45.006 77.529 45.6621 77.9232 45.6621C78.4488 45.7933 78.4488 45.006 77.9232 45.006Z" fill="black"/>
<path d="M59.7893 41.2007C59.1322 41.2007 59.1322 42.2504 59.7893 42.2504C60.4463 42.2504 60.4463 41.2007 59.7893 41.2007Z" fill="black"/>
<path d="M41.1298 54.0597C40.7356 54.0597 40.7356 54.7158 41.1298 54.7158C41.1298 54.7158 41.2612 54.7158 41.2612 54.847C41.2612 55.2406 41.9182 55.2406 41.9182 54.847C41.7868 54.3221 41.524 54.0597 41.1298 54.0597Z" fill="black"/>
<path d="M37.4504 62.4573C37.319 62.1949 36.9248 62.1949 36.7934 62.4573C36.7934 62.7197 36.7934 62.851 36.7934 63.1134C36.9248 63.2446 37.1876 63.2446 37.319 63.1134C37.5818 62.851 37.5818 62.7197 37.4504 62.4573Z" fill="black"/>
<path d="M34.297 70.1988C33.7713 70.1988 33.7713 70.8549 34.297 70.8549C34.6912 70.8549 34.6912 70.1988 34.297 70.1988Z" fill="black"/>
<path d="M49.8026 97.2287C49.6712 96.835 49.4083 96.7038 49.0141 96.7038C48.7513 96.7038 48.4885 96.9663 48.6199 97.2287C48.7513 97.4911 49.1455 97.7535 49.5397 97.6223C49.8026 97.4911 49.8026 97.3599 49.8026 97.2287Z" fill="black"/>
<path d="M55.9788 102.74C55.8474 102.608 55.5846 102.477 55.4532 102.346C54.9275 102.083 54.5333 102.74 55.0589 103.133C55.1903 103.264 55.4532 103.396 55.5846 103.527C55.9788 103.789 56.373 103.002 55.9788 102.74Z" fill="black"/>
<path d="M70.0388 95.2604C69.5132 95.2604 69.5132 96.1789 70.0388 96.1789C70.5645 96.1789 70.5645 95.2604 70.0388 95.2604Z" fill="black"/>
<path d="M67.0168 106.414C66.8854 106.151 66.754 106.02 66.6226 105.889C66.6226 105.889 66.4912 105.889 66.4912 105.758L66.3598 105.626C66.3598 105.626 66.2284 105.495 66.2284 105.364C65.9655 105.101 65.4399 105.495 65.7027 105.758C65.8341 105.889 65.8341 105.889 65.9655 106.02C66.0969 106.282 66.3598 106.545 66.4912 106.807C66.754 107.332 67.2796 106.807 67.0168 106.414Z" fill="black"/>
<path d="M132.062 99.5905C133.507 99.0657 134.822 99.0657 136.398 99.3281C136.661 99.3281 136.793 99.0657 136.53 98.9345C135.084 98.1472 133.376 98.4096 131.931 99.0657C131.668 99.1969 131.799 99.5905 132.062 99.5905Z" fill="black"/>
<path d="M136.267 103.264C136.793 103.92 137.581 104.445 138.501 104.445C138.764 104.445 138.764 104.052 138.501 104.052C137.713 103.789 137.056 103.658 136.399 103.133C136.267 103.002 136.136 103.133 136.267 103.264Z" fill="black"/>
<path d="M124.835 110.612C125.755 111.793 126.28 112.974 126.806 114.418C126.937 114.811 127.463 114.68 127.332 114.286C126.937 112.843 126.28 111.531 125.229 110.481C125.098 110.219 124.703 110.481 124.835 110.612Z" fill="black"/>
<path d="M113.271 116.911C113.271 118.092 113.008 119.272 112.351 120.322C112.22 120.716 112.614 120.847 112.877 120.585C113.665 119.535 113.928 118.092 113.665 116.779C113.665 116.648 113.271 116.648 113.271 116.911Z" fill="black"/>
<path d="M102.759 102.346C101.314 103.921 99.7367 105.626 98.6854 107.463C98.554 107.726 98.9482 108.119 99.211 107.857C100.656 106.151 101.839 104.445 103.285 102.871C103.547 102.477 103.153 102.084 102.759 102.346Z" fill="black"/>
<path d="M95.4003 88.175C94.2177 88.831 92.9036 89.2247 91.5896 89.6183C91.3268 89.7495 91.3268 90.2744 91.721 90.2744C93.1664 90.1432 94.6119 89.4871 95.7945 88.6998C96.0573 88.4374 95.7945 88.0437 95.4003 88.175Z" fill="black"/>
<path d="M97.2398 76.3658C96.0571 75.5786 94.6117 75.0537 93.0348 75.3161C92.6406 75.3161 92.772 75.841 93.1662 75.9722C94.4803 76.1034 95.6629 76.3658 96.977 76.8907C97.3712 77.1531 97.634 76.6283 97.2398 76.3658Z" fill="black"/>
<path d="M102.233 91.7177C101.445 91.8489 100.656 91.9801 99.868 92.3738C99.6052 92.505 99.7366 92.8986 99.9994 92.8986C100.788 92.8986 101.576 92.505 102.365 92.3738C102.759 92.1113 102.627 91.5865 102.233 91.7177Z" fill="black"/>
<path d="M109.329 71.1173C108.804 70.1988 108.409 69.2803 107.752 68.493C107.49 68.2306 107.095 68.493 107.227 68.7555C107.621 69.674 108.147 70.5924 108.672 71.3797C108.935 71.7734 109.461 71.3797 109.329 71.1173Z" fill="black"/>
<path d="M120.367 69.1492C120.498 67.8371 120.367 66.2625 119.71 65.2128C119.579 64.9504 119.184 65.0816 119.316 65.344C119.579 66.6561 119.841 67.8371 119.841 69.1492C119.71 69.5428 120.367 69.5428 120.367 69.1492Z" fill="black"/>
<path d="M125.755 79.2525C125.229 79.6461 124.703 80.0398 124.178 80.5646C123.915 80.827 124.309 81.2207 124.572 80.9582C125.098 80.5646 125.623 80.0398 126.149 79.6461C126.412 79.5149 126.018 79.1213 125.755 79.2525Z" fill="black"/>
<path d="M130.485 71.9046C131.274 70.7237 132.456 70.0677 133.902 69.674C134.165 69.5428 134.033 69.1492 133.77 69.1492C132.193 69.4116 130.879 70.3301 129.96 71.6422C129.697 71.9046 130.222 72.1671 130.485 71.9046Z" fill="black"/>
<path d="M135.347 86.4692C136.399 86.338 137.713 86.4692 138.764 86.2068C138.895 86.2068 138.895 85.9443 138.764 85.9443C137.713 85.8131 136.53 86.2068 135.347 86.338C135.216 86.2068 135.216 86.4692 135.347 86.4692Z" fill="black"/>
<path d="M144.414 86.4692C143.889 86.6005 143.232 86.7317 142.837 87.1253C142.575 87.2565 142.706 87.7814 142.969 87.7814C143.494 87.7814 144.02 87.5189 144.677 87.2565C145.071 86.9941 144.809 86.338 144.414 86.4692Z" fill="black"/>
<path d="M93.9548 107.857C93.2978 108.382 92.5094 109.038 91.8524 109.694C91.5895 109.956 91.9838 110.35 92.2466 110.088C93.035 109.563 93.5606 108.907 94.2176 108.251C94.6119 107.988 94.2176 107.595 93.9548 107.857Z" fill="black"/>
</svg>
