<svg width="239" height="213" viewBox="0 0 239 213" fill="none" xmlns="http://www.w3.org/2000/svg">
<path d="M141.01 54.4337C133.615 47.0124 124.548 40.6787 113.548 40.6359C113.391 40.1786 113.541 39.8711 113.235 39.7212C112.289 36.2125 109.508 32.5691 105.983 31.2277C105.827 30.7704 105.513 29.8558 105.05 29.2485C103.497 26.2047 100.873 23.0187 97.7984 20.755C97.3286 19.383 96.2452 17.7113 94.8614 16.6544C91.4737 13.476 86.127 13.5296 81.2438 14.1904C67.3577 16.1651 55.2007 23.9352 47.3518 35.3334C47.2016 35.6409 47.0514 35.9483 47.0514 35.9483C41.1423 41.8203 33.1624 55.8202 40.3947 62.0194C40.8581 62.6266 41.7785 63.0763 42.6989 63.526C43.7951 66.7273 46.1122 69.7634 48.8798 71.8772C48.2726 72.3422 47.9722 72.9571 48.4356 73.5643C50.6088 77.6726 53.8527 81.9232 57.9978 84.3292C57.8476 84.6366 57.6974 84.944 57.6974 84.944C56.6715 90.1552 56.4095 95.3587 58.1322 100.389C60.3246 106.792 65.1089 112.557 68.9727 117.872C77.0137 129.417 85.5116 140.804 94.6168 151.727C103.879 163.106 113.747 174.021 124.374 184.163C132.383 191.884 141.443 197.453 153.057 197.796C176.742 198.324 196.898 178.848 202.979 157.066C204.312 152.004 204.58 147.566 202.858 142.535C200.822 136.59 197.415 131.117 194.165 126.102C186.881 113.784 178.383 102.397 170.342 90.8519C161.224 78.3999 152.407 65.3331 141.01 54.4337ZM40.9315 53.1419C41.9509 47.166 45.5814 42.8466 48.7484 37.9199C49.2054 37.7623 49.6624 37.6048 49.8126 37.2973C56.7604 27.7438 67.0893 20.6038 78.8341 18.3446C83.8676 17.3764 94.0912 15.8972 95.0692 23.2299C96.191 29.4903 89.6747 35.8272 86.0442 40.1466C78.3327 49.7079 68.1731 58.8347 55.6645 61.1016C52.7659 61.5895 50.0174 61.77 47.1124 61.4932C42.2163 60.6244 40.0559 58.0456 40.9315 53.1419ZM82.5226 57.4672C75.9743 59.9803 69.752 64.9375 63.8237 68.5152C59.5668 71.0053 55.7669 73.3379 51.1585 70.3247C48.704 69.1256 47.464 66.9965 45.9172 64.7175C48.8222 64.9943 52.1843 65.1136 54.7761 64.4757C60.4232 63.8073 66.0575 61.6093 70.9216 58.6542C76.8499 55.0765 81.8514 50.2845 86.546 45.3425C90.7837 40.558 96.386 34.5362 98.6263 28.3951C99.0769 27.4728 99.2207 26.4006 99.3645 25.3284C99.6713 25.4783 99.8279 25.9356 100.135 26.0855C103.222 29.8787 104.932 33.3798 104.056 38.2835C102.749 46.4039 97.917 53.1828 92.1581 58.7473C90.7935 59.9848 92.6471 62.4137 94.0118 61.1762C100.841 55.754 105.817 47.9028 107.274 39.475C107.568 38.0954 107.706 36.2584 107.693 34.7288C109.24 37.0079 111.244 39.1293 111.269 42.1884L111.119 42.4958C110.844 46.1698 108.585 50.0166 106.626 53.2485C102.558 60.0198 97.262 66.1916 91.3465 71.2988C85.431 76.4059 78.4385 80.6061 70.8196 82.9769C61.673 85.3631 57.3522 80.2055 52.5679 74.4407C54.5589 75.0326 56.3933 75.1672 58.378 74.9944C62.6476 74.0338 66.4411 70.9364 70.0908 68.9113C74.8046 66.2636 80.1321 63.9157 83.9192 60.0536C84.8268 58.9738 83.8936 56.9945 82.5226 57.4672ZM162.058 86.8048C168.859 96.2206 175.203 105.794 182.004 115.21C188.498 124.476 196.226 135.106 199.371 145.782C202.516 156.458 193.772 170.466 186.962 178.182C179.244 186.979 168.602 193.204 156.694 194.241C145.243 195.121 135.889 190.932 127.573 183.061C118.487 174.432 109.852 164.882 101.523 155.482C92.8813 145.166 84.3898 134.544 76.5055 123.456C72.485 117.684 68.4645 111.911 64.5943 105.831C60.2606 99.1443 60.366 93.4834 60.6088 85.9856C62.293 86.4276 64.2841 87.0196 66.2687 86.8467C75.5847 86.4474 85.7634 79.6149 92.7431 73.8852C100.33 67.6905 106.834 59.824 111.34 50.6009C112.391 48.4488 113.593 45.9893 113.88 43.8449C124.267 43.5879 133.183 50.229 139.965 57.3505C148.137 66.2937 155.251 76.6242 162.058 86.8048Z" fill="#333333"/>
<path d="M78.0588 89.9399C74.2333 89.2134 65.9816 88.9902 65.2625 94.3512C64.6937 99.4048 67.0492 107.03 70.5934 110.665C71.6704 111.572 73.4985 110.942 72.7219 109.42C71.3124 105.304 68.9954 102.268 68.1932 97.6871C68.0302 96.465 67.717 95.5504 68.6246 94.4705C69.3756 92.9333 70.1394 92.9257 71.667 92.9103C73.8019 92.4301 75.7865 92.2572 77.7647 91.3196C78.829 90.6971 78.8226 89.9323 78.0588 89.9399Z" fill="#333333"/>
<path d="M83.6162 115.125C83.1528 114.518 77.4545 109.068 77.7549 108.453C76.077 108.776 77.4673 110.597 77.7805 111.512C80.5673 115.92 83.9678 120.628 87.6622 123.956C88.4324 124.713 89.7971 123.476 89.4839 122.561C87.7804 119.825 85.4698 117.554 83.6162 115.125Z" fill="#333333"/>
<path d="M144.086 166.374C142.702 165.317 141.494 167.012 141.964 168.383C144.131 171.727 146.598 174.456 148.765 177.799C151.076 180.071 150.325 181.608 146.976 183.018C146.205 182.261 145.285 181.811 144.515 181.054C142.974 179.54 141.741 178.176 140.507 176.811C135.259 170.439 130.312 163.452 125.521 156.923C115.783 143.406 105.739 129.74 96.7581 115.451C96.2947 114.844 95.5373 115.616 95.6939 116.074C101.737 126.262 107.781 136.45 114.281 146.481C120.782 156.511 127.89 166.077 135.304 175.793C137.778 179.286 146.896 191.738 152.354 186.788C158.113 181.224 147.781 169.702 144.086 166.374Z" fill="#333333"/>
<path d="M114.114 90.039C112.573 88.5248 109.643 85.1889 107.057 86.5915C104.165 87.8442 105.274 92.5751 105.75 94.7118C106.853 98.6779 109.633 102.321 111.8 105.665C115.508 110.523 119.215 115.38 123.379 120.081C124.149 120.838 125.364 119.908 124.593 119.151C119.339 112.014 113.015 104.735 109.282 96.818C108.812 95.446 106.175 90.7304 108.917 89.7852C109.681 89.7775 113.689 94.0204 113.689 94.0204C116.77 97.0489 119.55 100.692 122.18 104.643C127.128 111.63 131.011 119.239 135.501 126.384C139.991 133.528 144.795 141.587 151.107 147.337C151.57 147.944 152.785 147.014 152.471 146.1C149.985 141.077 146.434 136.676 143.19 132.425C139.94 127.41 136.69 122.395 133.44 117.379C128.01 107.491 122.273 97.4527 114.114 90.039Z" fill="#333333"/>
<path d="M131.944 84.659C131.675 89.0977 134.612 93.1984 137.236 96.3844C141.714 101.999 146.498 107.764 150.976 113.379C160.387 124.451 169.799 135.524 178.297 146.911C180.308 149.797 182.775 152.526 184.485 156.027C184.798 156.942 186.658 160.135 184.83 160.766C184.223 161.231 180.835 158.052 179.915 157.602C173.766 153.075 168.067 147.625 162.976 141.711C162.513 141.103 161.449 141.726 161.912 142.333C165.776 147.648 170.247 152.498 175.018 156.734C177.479 158.698 182.877 164.762 186.84 163.652C194.609 160.973 178.409 142.015 176.556 139.586C167.907 128.506 158.495 117.434 149.39 106.511C145.376 101.504 140.448 96.8111 137.041 91.3384C136.265 89.8166 133.948 86.7804 135.769 85.3855C136.37 84.1557 137.134 84.1481 137.604 85.5201C138.374 86.2772 139.451 87.1842 140.221 87.9413C142.225 90.0628 143.622 92.6492 146.082 94.6131C146.853 95.3703 147.76 94.2904 147.754 93.5256C146.952 88.9447 132.918 73.3297 131.944 84.659Z" fill="#333333"/>
<path d="M137.561 62.2704C134.174 59.0921 129.885 57.7583 126.047 55.5023C125.433 55.2025 124.676 55.9749 125.139 56.5822C126.066 57.7966 127.293 58.3962 128.677 59.4531C131.902 61.4093 134.97 62.9083 137.287 65.9444C139.911 69.1304 141.026 74.6261 145.165 76.2672C146.085 76.7169 147.143 75.3296 146.373 74.5725C143.436 70.4718 141.106 65.9061 137.561 62.2704Z" fill="#333333"/>
<path d="M65.7539 43.5618C64.3765 43.2697 62.7051 44.3572 61.7974 45.437C61.1902 45.902 61.3532 47.1241 61.8166 47.7313C62.2801 48.3386 63.3507 48.4808 63.8077 48.3233C64.2647 48.1657 64.7217 48.0082 65.1787 47.8506C65.6357 47.6931 66.2429 47.2281 66.8501 46.7631C67.6011 45.2259 67.1313 43.8539 65.7539 43.5618Z" fill="#333333"/>
<path d="M77.6105 36.4065C75.9199 35.1997 73.7915 36.4448 72.7337 37.8321C71.826 38.9119 72.6091 41.1986 74.1367 41.1833C74.9005 41.1756 75.6643 41.168 76.2715 40.703C76.4217 40.3956 76.8787 40.238 77.0289 39.9306C77.0289 39.9306 77.1791 39.6231 77.0289 39.9306C78.3936 38.6932 78.3808 37.1636 77.6105 36.4065Z" fill="#333333"/>
<path d="M82.7236 26.7188C81.9597 26.7265 81.3525 27.1915 81.0521 27.8064C80.7517 28.4212 80.6015 28.7287 80.3011 29.3435C80.0007 29.9584 80.4641 30.5656 80.9275 31.1729C81.0841 31.6302 81.6977 31.93 82.0046 32.0799C83.382 32.372 84.4398 30.9847 84.7338 29.6051C85.178 27.918 83.9444 26.5536 82.7236 26.7188Z" fill="#333333"/>
<path d="M73.5645 27.575C72.6504 27.8901 71.893 28.6625 71.4424 29.5848C70.9918 30.5071 71.6118 31.5717 72.0752 32.1789C72.9956 32.6286 74.0663 32.7708 74.6735 32.3058C74.8237 31.9984 74.8237 31.9984 75.2807 31.8409C75.7377 31.6833 75.8879 31.3759 76.0381 31.0684C76.4887 30.1461 76.4823 29.3813 76.1691 28.4667C75.3989 27.7096 74.4785 27.2599 73.5645 27.575Z" fill="#333333"/>
<path d="M66.1406 34.9917C64.4564 34.5497 62.9415 36.0945 62.8041 37.9315C62.6603 39.0037 63.5871 40.2182 64.6578 40.3604C65.7284 40.5026 66.7926 39.8801 67.2432 38.9578C67.3934 38.6504 67.5436 38.3429 67.2368 38.193C67.387 37.8856 67.5372 37.5781 67.6874 37.2707C67.9814 35.8911 67.2112 35.1339 66.1406 34.9917Z" fill="#333333"/>
<path d="M53.9829 42.7632C52.6119 43.2358 51.5605 45.3879 52.6439 47.0597C53.1073 47.6669 53.7209 47.9667 54.4847 47.959C55.0983 48.2588 56.0124 47.9437 56.6196 47.4788C57.6838 46.8562 58.4348 45.319 57.8148 44.2545C57.4952 42.575 55.5041 41.9831 53.9829 42.7632Z" fill="#333333"/>
<path d="M52.8265 50.5753C51.906 50.1256 50.992 50.4407 50.078 50.7558C49.4708 51.2208 49.327 52.293 49.4836 52.7503C49.6402 53.2076 49.947 53.3575 50.2538 53.5074L50.4104 53.9648C50.8738 54.572 51.4874 54.8718 51.9444 54.7142C52.7083 54.7066 53.4657 53.9342 53.9163 53.0118C54.6737 52.2394 54.2039 50.8674 52.8265 50.5753Z" fill="#333333"/>
<path d="M55.9101 35.707C53.9191 35.1151 51.9473 36.8175 52.1167 38.8044C52.2797 40.0265 53.8137 40.7759 54.8779 40.1534C55.4851 39.6884 56.0923 39.2234 56.3927 38.6086C57.457 37.986 57.1374 36.3066 55.9101 35.707Z" fill="#333333"/>
<path d="M62.5835 29.8264C62.8903 29.9763 62.8903 29.9763 62.5835 29.8264C62.5835 29.8264 62.2767 29.6765 61.9699 29.5266C61.3563 29.2268 60.5924 29.2345 60.292 29.8494C59.5346 30.6218 59.084 31.5441 59.3972 32.4588C59.7104 33.3734 60.4742 33.3658 61.2381 33.3581C62.0019 33.3505 63.0661 32.728 63.2099 31.6557C63.2099 31.6557 63.3601 31.3483 63.0533 31.1984C63.2035 30.891 63.0469 30.4336 63.0469 30.4336C63.1971 30.1262 62.8903 29.9763 62.5835 29.8264Z" fill="#333333"/>
<path d="M70.0266 24.7041C69.413 24.4043 69.1062 24.2544 68.6492 24.4119C67.8854 24.4196 66.8212 25.0421 66.6773 26.1143C66.3833 27.494 67.7672 28.5509 68.6812 28.2358C69.5952 27.9207 70.2024 27.4557 70.3462 26.3835L70.4964 26.0761C70.6466 25.7686 70.7968 25.4612 70.6402 25.0038C70.6402 25.0038 70.3334 24.854 70.0266 24.7041Z" fill="#333333"/>
<path d="M77.9391 20.9544C77.1753 20.9621 76.7183 21.1196 75.9609 21.8921C75.2035 22.6645 75.6733 24.0365 76.2869 24.3363C76.5937 24.4861 76.9005 24.636 77.6643 24.6284C77.9711 24.7783 78.7349 24.7706 78.8852 24.4632C79.6426 23.6908 79.7864 22.6186 79.1664 21.554C78.8595 21.4041 78.5527 21.2542 77.9391 20.9544Z" fill="#333333"/>
<path d="M46.671 45.2835C45.9136 46.0559 46.0766 47.2781 46.8468 48.0352C47.4604 48.335 48.2242 48.3273 48.6812 48.1698C49.1382 48.0122 49.2884 47.7048 49.4386 47.3973C49.739 46.7825 49.5824 46.3251 49.4258 45.8678C49.4258 45.8678 49.576 45.5603 49.2692 45.4105C48.956 44.4958 47.5786 44.2037 46.671 45.2835Z" fill="#333333"/>
</svg>
